<?xml version="1.0" standalone="no"?>
<!DOCTYPE svg PUBLIC "-//W3C//DTD SVG 1.1//EN" "http://www.w3.org/Graphics/SVG/1.1/DTD/svg11.dtd" >
<svg xmlns="http://www.w3.org/2000/svg">
<metadata></metadata>
<defs>
<font id="suisse_jumexregular" horiz-adv-x="1087" >
<font-face units-per-em="2048" ascent="1536" descent="-512" />
<missing-glyph horiz-adv-x="450" />
<glyph horiz-adv-x="0" />
<glyph unicode="&#xd;" horiz-adv-x="681" />
<glyph unicode=" "  horiz-adv-x="450" />
<glyph unicode="&#x09;" horiz-adv-x="450" />
<glyph unicode="&#xa0;" horiz-adv-x="450" />
<glyph unicode="!" horiz-adv-x="464" d="M123 0v219h219v-219h-219zM135 963v397h182v-397l-36 -560h-109z" />
<glyph unicode="&#x22;" horiz-adv-x="587" d="M51 1360h195l-39 -483h-117zM342 1360h195l-39 -483h-117z" />
<glyph unicode="#" horiz-adv-x="1267" d="M41 422l18 135h271l43 311h-269l19 136h268l51 356h142l-52 -356h297l52 356h141l-51 -356h256l-19 -136h-256l-43 -311h254l-18 -135h-254l-60 -422h-141l60 422h-297l-60 -422h-141l59 422h-270zM471 557h297l43 311h-297z" />
<glyph unicode="$" horiz-adv-x="1118" d="M63 430l179 4q2 -141 76.5 -217t183.5 -88v498l-43 12q-164 45 -261.5 141.5t-97.5 245.5q0 154 118 248t284 108v162h104v-162q195 -14 307.5 -127.5t110.5 -298.5l-178 -4q-2 135 -68.5 202t-171.5 77v-455l29 -8q94 -27 156.5 -51.5t130 -69.5t101.5 -113.5t34 -160.5 q0 -180 -127 -281.5t-324 -114.5v-161h-104v161q-197 16 -319 142.5t-120 310.5zM279 1028q0 -162 221 -223l2 -2v430q-92 -6 -157.5 -57.5t-65.5 -147.5zM606 127q119 4 196 59.5t77 159.5q0 111 -65 162t-208 90v-471z" />
<glyph unicode="%" horiz-adv-x="1693" d="M45 972.5q0 186.5 80 294t233.5 107.5t232.5 -107.5t79 -294t-80 -295t-232 -108.5q-154 0 -233.5 108.5t-79.5 295zM186 973q0 -295 172 -295q170 0 170 295q0 293 -170 293q-172 0 -172 -293zM274 0h193l952 1360h-192zM1024 389q0 186 80 294t233.5 108t232.5 -108 t79 -294t-80 -294.5t-232 -108.5q-154 0 -233.5 108.5t-79.5 294.5zM1165 389q0 -295 172 -295q170 0 170 295q0 293 -170 293q-172 0 -172 -293z" />
<glyph unicode="&#x26;" horiz-adv-x="1337" d="M53 373q0 150 92.5 255t255.5 160q-152 168 -151 308q0 131 103.5 209.5t267.5 78.5q145 0 249.5 -70.5t104.5 -221.5q0 -233 -285 -353l279 -290q55 131 67 286h178q-18 -233 -124 -413l309 -322h-250l-168 176q-190 -201 -469 -201q-207 0 -333 113t-126 285zM238 381 q0 -115 80.5 -184.5t193.5 -69.5q215 0 360 164l-368 389q-266 -94 -266 -299zM434 1100q1 -96 148 -248l6 -6q221 80 221 235q0 78 -51 115t-133 37q-80 0 -135.5 -34t-55.5 -99z" />
<glyph unicode="'" horiz-adv-x="296" d="M51 1360h195l-39 -483h-117z" />
<glyph unicode="(" horiz-adv-x="466" d="M61 504q0 260 78 481t185 375h143q-227 -373 -227 -856q0 -485 227 -858h-143q-106 154 -184.5 376t-78.5 482z" />
<glyph unicode=")" horiz-adv-x="466" d="M0 -354q227 373 227 858q0 483 -227 856h143q106 -154 184.5 -375t78.5 -481t-78 -482.5t-185 -375.5h-143z" />
<glyph unicode="*" horiz-adv-x="669" d="M20 1118l39 107l215 -82v227h115v-227l215 82l45 -107l-219 -76l131 -184l-88 -67l-141 192l-129 -192l-101 65l134 186z" />
<glyph unicode="+" horiz-adv-x="1177" d="M72 430v164h430v418h174v-418h430v-164h-430v-430h-174v430h-430z" />
<glyph unicode="," horiz-adv-x="464" d="M115 -264l100 264h-92v219h219v-233l-117 -250h-110z" />
<glyph unicode="-" horiz-adv-x="770" d="M82 440v164h606v-164h-606z" />
<glyph unicode="." horiz-adv-x="464" d="M123 0v219h219v-219h-219z" />
<glyph unicode="/" horiz-adv-x="716" d="M0 0l543 1360h174l-543 -1360h-174z" />
<glyph unicode="0" horiz-adv-x="1259" d="M92 686q0 330 134 514t402.5 184t403.5 -184t135 -514q0 -332 -135 -521.5t-403.5 -189.5t-402.5 188.5t-134 522.5zM276 686q0 -276 93.5 -417.5t259.5 -141.5t260 141.5t94 417.5q0 274 -93 410.5t-261 136.5t-260.5 -136t-92.5 -411z" />
<glyph unicode="1" horiz-adv-x="700" d="M23 1059v119q109 4 171 16t114 52t89 114h119v-1360h-174v1059h-319z" />
<glyph unicode="2" horiz-adv-x="1122" d="M57 0v156q205 152 330 253t235.5 209.5t158.5 199.5t48 181q0 109 -67.5 171.5t-190.5 62.5q-125 0 -210 -73.5t-87 -233.5l-178 4q-4 201 129 327.5t350 126.5q197 0 318 -96t121 -266q0 -68 -21.5 -135.5t-51.5 -123.5t-91.5 -126t-108.5 -117t-136 -121.5t-142 -115.5 t-158 -121h746v-162h-994z" />
<glyph unicode="3" horiz-adv-x="1118" d="M43 391l178 15q16 -131 95 -205t221 -74q139 0 225 66.5t86 187.5q0 258 -397 258h-29v156h22q367 0 367 227q0 100 -76 155.5t-192 55.5q-135 0 -212 -70.5t-87 -189.5l-181 14q16 178 145.5 287.5t338.5 109.5q195 0 321.5 -85t126.5 -261q0 -106 -58 -188t-167 -125 q262 -84 262 -342q0 -195 -145.5 -301.5t-351.5 -106.5q-227 0 -352.5 120t-139.5 296z" />
<glyph unicode="4" horiz-adv-x="1187" d="M33 340v164l684 856h176v-856h254v-164h-254v-340h-174v340h-686zM225 504h494v618z" />
<glyph unicode="5" horiz-adv-x="1155" d="M84 387l178 14q43 -274 316 -274q131 0 219 85t88 234q0 158 -92.5 238t-219.5 80q-96 0 -167.5 -44t-98.5 -102l-174 9l90 733h793v-168h-651l-50 -379q109 102 299.5 102t322.5 -125.5t132 -340.5q0 -223 -143.5 -348.5t-350.5 -125.5q-223 0 -345.5 119t-145.5 293z " />
<glyph unicode="6" horiz-adv-x="1171" d="M92 631q0 152 29 281.5t90 238.5t168.5 171t251.5 62q188 0 294.5 -97.5t131.5 -242.5h-189q-35 188 -258 189q-158 0 -244.5 -137.5t-95.5 -378.5q113 188 365 188q193 0 318.5 -129t125.5 -332q0 -197 -135 -333t-350 -136q-502 0 -502 656zM293 436q0 -141 81 -225 t218 -84q135 0 219 85t84 224q0 137 -84 224.5t-217 87.5q-135 0 -218 -86.5t-83 -225.5z" />
<glyph unicode="7" horiz-adv-x="976" d="M20 1190v170h957v-170q-539 -434 -586 -1190h-209q45 715 592 1190h-754z" />
<glyph unicode="8" horiz-adv-x="1191" d="M92 383q0 246 234 342q-96 51 -143.5 135t-47.5 176q0 154 126 251t335 97t335 -97t126 -251q0 -92 -47 -176t-144 -135q233 -96 234 -342q0 -190 -141.5 -299t-362.5 -109t-362.5 109t-141.5 299zM276 383q0 -119 86.5 -187.5t233.5 -68.5t233 68.5t86 187.5t-87 190.5 t-232 71.5t-232.5 -71.5t-87.5 -190.5zM309 1018q0 -104 79 -169t208 -65t208 65t79 169q0 100 -78 157.5t-209 57.5t-209 -57.5t-78 -157.5z" />
<glyph unicode="9" horiz-adv-x="1161" d="M82 915q0 197 135 333t350 136q502 0 502 -655q0 -154 -28.5 -283t-88 -237.5t-167 -171t-250.5 -62.5q-190 0 -298 97.5t-133 242.5h189q35 -188 258 -188q158 0 245 137t95 379q-113 -188 -365 -188q-193 0 -318.5 129t-125.5 331zM266 924q0 -137 84 -224.5t217 -87.5 q135 0 218 86.5t83 225.5q0 141 -80.5 225t-218.5 84q-135 0 -219 -85t-84 -224z" />
<glyph unicode=":" horiz-adv-x="464" d="M123 0v219h219v-219h-219zM123 784v220h219v-220h-219z" />
<glyph unicode=";" horiz-adv-x="464" d="M115 -264l100 264h-92v219h219v-233l-117 -250h-110zM123 784v220h219v-220h-219z" />
<glyph unicode="&#x3c;" horiz-adv-x="1130" d="M72 436v148l977 432v-187l-760 -319l760 -313v-185z" />
<glyph unicode="=" horiz-adv-x="1118" d="M82 248v164h954v-164h-954zM82 633v164h954v-164h-954z" />
<glyph unicode="&#x3e;" horiz-adv-x="1130" d="M82 12v185l760 313l-760 319v187l977 -432v-148z" />
<glyph unicode="?" horiz-adv-x="950" d="M25 975q2 184 132 296.5t335 112.5q176 0 303 -86t127 -249q0 -123 -70 -208t-188 -163q-96 -61 -128 -101t-32 -114v-60h-176v66q0 113 53 180.5t182 149.5q61 39 92 64.5t57.5 72.5t26.5 106q0 88 -70.5 138.5t-181.5 50.5q-145 0 -213.5 -79t-74.5 -183zM309 0v219 h219v-219h-219z" />
<glyph unicode="@" horiz-adv-x="1615" d="M88 664q0 305 215 510.5t533 205.5q295 0 483 -154.5t188 -453.5q0 -219 -104.5 -350t-243.5 -131q-78 0 -129 46t-63 130q-90 -170 -289 -170q-121 0 -201 86t-80 254q0 176 107.5 309t281.5 133q78 0 135.5 -39t84.5 -106l14 113h135l-55 -414q-27 -205 80 -205 q76 0 129 92t53 246q0 231 -144.5 356t-386.5 125q-262 0 -426.5 -167t-164.5 -421q0 -238 140 -389t378 -151q206 0 368 82l54 -133q-197 -92 -422 -93q-297 0 -483.5 195t-186.5 494zM561 635q0 -199 160 -199q109 0 171 91t62 223q0 88 -44 137t-122 49 q-102 0 -164.5 -88t-62.5 -213z" />
<glyph unicode="A" horiz-adv-x="1255" d="M0 0l512 1360h225l518 -1360h-213l-108 295h-627l-104 -295h-203zM369 465h503l-254 694z" />
<glyph unicode="B" horiz-adv-x="1280" d="M164 0v1360h498q485 0 485 -338q0 -98 -41 -178t-113 -121q209 -88 209 -322q0 -207 -135 -304t-358 -97h-545zM358 172h353q293 0 293 227q0 119 -73 169t-233 50h-340v-446zM358 780h332q127 0 193.5 49.5t66.5 165.5q0 193 -260 193h-332v-408z" />
<glyph unicode="C" horiz-adv-x="1372" d="M96 682q0 322 174 512t467 190q215 0 367.5 -112.5t198.5 -304.5l-189 -27q-33 127 -130 202t-255 75q-190 0 -312 -139.5t-122 -395.5q0 -252 121 -395.5t317 -143.5q160 0 258 74t131 203l189 -27q-45 -197 -203 -307.5t-385 -110.5q-293 0 -460 193.5t-167 513.5z" />
<glyph unicode="D" horiz-adv-x="1368" d="M164 0v1360h315q793 0 793 -680t-793 -680h-315zM358 172h115q102 0 175 7t159 37t139 82t90 149.5t37 232.5t-37 232.5t-90 149.5t-139 82t-159 37t-175 7h-115v-1016z" />
<glyph unicode="E" horiz-adv-x="1167" d="M164 0v1360h936v-172h-742v-402h699v-172h-699v-442h742v-172h-936z" />
<glyph unicode="F" horiz-adv-x="1064" d="M164 0v1360h897v-172h-703v-402h662v-172h-662v-614h-194z" />
<glyph unicode="G" horiz-adv-x="1466" d="M96 681.5q0 319.5 175 511t466 191.5q215 0 370 -111.5t202 -303.5l-189 -27q-37 123 -136 199t-255 76q-190 0 -312 -139.5t-122 -395.5q0 -252 118.5 -395.5t315.5 -143.5q76 0 142.5 16.5t129 54.5t98.5 110.5t36 175.5v32h-365v173h549v-705h-154l-8 174 q-127 -199 -436 -199q-293 0 -459 193.5t-166 513z" />
<glyph unicode="H" horiz-adv-x="1441" d="M164 0v1360h194v-574h725v574h195v-1360h-195v614h-725v-614h-194z" />
<glyph unicode="I" horiz-adv-x="522" d="M164 0v1360h194v-1360h-194z" />
<glyph unicode="J" horiz-adv-x="1038" d="M61 412l187 26q10 -143 69.5 -219t155.5 -76q207 0 207 318v899h194v-922q0 -225 -102 -344t-305 -119q-174 0 -280 113t-126 324z" />
<glyph unicode="K" horiz-adv-x="1267" d="M164 0v1360h194v-676l623 676h242l-514 -549l573 -811h-233l-471 670l-220 -236v-434h-194z" />
<glyph unicode="L" d="M164 0v1360h194v-1188h729v-172h-923z" />
<glyph unicode="M" horiz-adv-x="1683" d="M164 0v1360h325l353 -1131l352 1131h326v-1360h-195v1182l-381 -1182h-205l-381 1182v-1182h-194z" />
<glyph unicode="N" horiz-adv-x="1437" d="M164 0v1360h285l630 -1155v1155h195v-1360h-285l-631 1157v-1157h-194z" />
<glyph unicode="O" horiz-adv-x="1486" d="M96 680q0 311 181.5 507.5t467.5 196.5q291 0 468.5 -190t177.5 -514t-179.5 -514.5t-470.5 -190.5q-293 0 -469 195t-176 510zM295 680q0 -254 126 -395.5t322.5 -141.5t322.5 141.5t126 395.5t-126 395.5t-322.5 141.5t-322.5 -141.5t-126 -395.5z" />
<glyph unicode="P" horiz-adv-x="1179" d="M164 0v1360h401q276 0 425 -94.5t149 -334t-148.5 -333.5t-425.5 -94h-207v-504h-194zM358 676h222q86 0 143 9t110.5 33.5t80 78t26.5 135.5t-26.5 135t-80 77.5t-110.5 34t-143 9.5h-222v-512z" />
<glyph unicode="Q" horiz-adv-x="1513" d="M96 680q0 311 181.5 507.5t467.5 196.5q291 0 468.5 -190t177.5 -514q0 -301 -160 -494l160 -159l-119 -119l-168 168q-154 -100 -363 -101q-293 0 -469 195t-176 510zM295 680q0 -254 126 -395.5t322 -141.5q131 0 232 64l-127 127l119 119l129 -131q96 137 96 358 q0 254 -126 395.5t-322.5 141.5t-322.5 -141.5t-126 -395.5z" />
<glyph unicode="R" horiz-adv-x="1275" d="M164 0v1360h422q137 0 233 -16.5t177 -58.5t122 -122t41 -200q0 -293 -266 -373l313 -590h-217l-295 559q-35 -2 -108 -2h-228v-557h-194zM358 729h242q72 0 117 3t96 16.5t80 37t48.5 67.5t19.5 105.5t-19.5 105.5t-48.5 67.5t-80 37t-96 16.5t-117 3h-242v-459z" />
<glyph unicode="S" horiz-adv-x="1220" d="M61 412l189 26q57 -295 383 -295q152 0 236.5 59.5t84.5 162.5q0 100 -76 153t-221 84l-172 37q-379 82 -379 373q0 180 154 276t346 96q197 0 340.5 -92t181.5 -270l-188 -27q-31 117 -126 169.5t-216 52.5q-63 0 -124.5 -15.5t-115 -63.5t-53.5 -120q0 -154 225 -203 l160 -35q98 -23 165 -45t142.5 -66t115.5 -116t40 -170q0 -193 -152.5 -300.5t-371.5 -107.5q-240 0 -389.5 119t-178.5 318z" />
<glyph unicode="T" horiz-adv-x="1091" d="M0 1188v172h1092v-172h-449v-1188h-194v1188h-449z" />
<glyph unicode="U" horiz-adv-x="1392" d="M143 561v799h195v-819q0 -397 356 -398q360 0 361 418v799h194v-782q0 -602 -555 -603q-289 0 -420 147.5t-131 438.5z" />
<glyph unicode="V" horiz-adv-x="1214" d="M20 1360h213l383 -1159l375 1159h203l-467 -1360h-233z" />
<glyph unicode="W" horiz-adv-x="1755" d="M31 1360h213l266 -1139l256 1139h227l273 -1139l256 1139h202l-344 -1360h-235l-266 1114l-263 -1114h-235z" />
<glyph unicode="X" horiz-adv-x="1249" d="M-6 0l518 686l-508 674h229l394 -520l393 520h229l-508 -674l519 -686h-230l-403 535l-404 -535h-229z" />
<glyph unicode="Y" horiz-adv-x="1187" d="M0 1360h213l377 -674l385 674h213l-506 -846v-514h-195v518z" />
<glyph unicode="Z" horiz-adv-x="1204" d="M78 0v172l813 1016h-750v172h977v-172l-811 -1016h842v-172h-1071z" />
<glyph unicode="[" horiz-adv-x="581" d="M154 -354v1714h428v-148h-260v-1419h260v-147h-428z" />
<glyph unicode="\" horiz-adv-x="716" d="M0 1360h174l543 -1360h-174z" />
<glyph unicode="]" horiz-adv-x="581" d="M0 -207h260v1419h-260v148h428v-1714h-428v147z" />
<glyph unicode="^" horiz-adv-x="839" d="M-41 623l383 737h147l392 -737h-187l-278 520l-273 -520h-184z" />
<glyph unicode="_" horiz-adv-x="872" d="M61 -2h750v-164h-750v164z" />
<glyph unicode="`" horiz-adv-x="516" d="M61 1360h222l172 -242h-146z" />
<glyph unicode="a" horiz-adv-x="1054" d="M82 301q0 152 135 227q113 61 346 88l195 21v37q0 115 -60.5 161t-171.5 46q-115 0 -174 -50.5t-67 -136.5l-170 6q8 152 126.5 237t293.5 85q213 0 306 -89q91 -87 91 -284v-8l-4 -254v-25q0 -140 20 -362h-168l-6 141q-102 -166 -338 -166q-168 0 -261 94.5t-93 231.5z M266 295q0 -78 56.5 -123t146.5 -45q123 0 212 73.5t89 233.5v60l-209 -21q-152 -14 -223.5 -55t-71.5 -123z" />
<glyph unicode="b" horiz-adv-x="1124" d="M137 0v1360h174v-502q106 162 326 162q184 0 301 -141.5t117 -382.5q0 -240 -122 -380.5t-317 -140.5q-211 0 -305 148l-8 -123h-166zM303 496q0 -186 80 -277.5t209 -91.5q135 0 206.5 96t71.5 273q0 178 -70.5 275t-207.5 97q-125 0 -207 -94t-82 -278z" />
<glyph unicode="c" horiz-adv-x="1038" d="M70 500q0 227 131 373.5t356 146.5q176 0 290 -101.5t132 -230.5l-176 -24q-18 94 -88 148t-170 54q-127 0 -209 -94t-82 -270q0 -180 83 -276.5t208 -96.5q106 0 177 56.5t89 144.5l178 -23q-25 -137 -149.5 -234.5t-298.5 -97.5q-219 0 -345 146.5t-126 378.5z" />
<glyph unicode="d" horiz-adv-x="1124" d="M70 500q0 240 121.5 380t316.5 140q211 0 305 -148v488h174v-1360h-168l-6 137q-106 -162 -326 -162q-184 0 -300.5 141.5t-116.5 383.5zM254 500q0 -178 70.5 -275.5t207.5 -97.5q125 0 207 94t82 279q0 186 -79.5 277t-209.5 91q-135 0 -206.5 -96t-71.5 -272z" />
<glyph unicode="e" d="M70 498q0 233 136 377.5t351 144.5q231 0 361 -163q113 -142 112 -349q0 -30 -2 -62h-774q0 -145 84 -231t213 -86q213 0 283 176l178 -22q-37 -133 -157 -220.5t-300 -87.5q-236 0 -360.5 145.5t-124.5 377.5zM256 592h588q-4 111 -80 195.5t-207 84.5t-213 -74.5 t-88 -205.5z" />
<glyph unicode="f" horiz-adv-x="595" d="M39 860v144h141v73q0 164 54.5 223.5t222.5 59.5h90v-148h-86q-68 0 -87.5 -25.5t-19.5 -107.5v-75h193v-144h-193v-860h-174v860h-141z" />
<glyph unicode="g" horiz-adv-x="1116" d="M70 520q0 231 120.5 365.5t317.5 134.5q203 0 297 -148l4 132h170v-877q0 -150 -21.5 -228.5t-66.5 -129.5q-119 -135 -354 -136q-176 0 -287 79t-135 229l184 6q20 -78 74.5 -120t165.5 -42q139 0 209 76q57 63 57 227v90q-106 -162 -318 -162q-186 0 -301.5 134.5 t-115.5 369.5zM254 520q0 -170 70.5 -261t207.5 -91q125 0 203 87t78 265q0 180 -75.5 264t-205.5 84q-135 0 -206.5 -90t-71.5 -258z" />
<glyph unicode="h" horiz-adv-x="1099" d="M137 0v1360h174v-496q100 156 330 156q199 0 283 -137q55 -90 55 -267v-616h-174v569q0 147 -37 213q-51 86 -186 86q-127 0 -199 -86t-72 -247v-535h-174z" />
<glyph unicode="i" horiz-adv-x="448" d="M137 0v1004h174v-1004h-174zM137 1151v209h174v-209h-174z" />
<glyph unicode="j" horiz-adv-x="448" d="M-18 -207h49q68 0 87 25.5t19 107.5v1078h174v-1076q0 -164 -48 -223t-193 -59h-88v147zM137 1151v209h174v-209h-174z" />
<glyph unicode="k" horiz-adv-x="960" d="M137 0v1360h174v-780l412 424h213l-361 -371l394 -633h-203l-309 510l-146 -150v-360h-174z" />
<glyph unicode="l" horiz-adv-x="448" d="M137 0v1360h174v-1360h-174z" />
<glyph unicode="m" horiz-adv-x="1710" d="M137 0v1004h174v-140q92 156 312 156q209 0 286 -174q115 174 353 174q150 0 239 -94q88 -94 88 -310v-616h-174v567q0 184 -57 244q-55 57 -160 57q-115 0 -181.5 -86t-66.5 -241v-541h-174v567q0 184 -57 244q-55 57 -160 57q-115 0 -181.5 -86t-66.5 -241v-541h-174z " />
<glyph unicode="n" horiz-adv-x="1099" d="M137 0v1004h174v-140q100 156 330 156q199 0 283 -137q55 -90 55 -267v-616h-174v569q0 147 -37 213q-51 86 -186 86q-127 0 -199 -86t-72 -247v-535h-174z" />
<glyph unicode="o" horiz-adv-x="1085" d="M70 498q0 256 136 389t336.5 133t337 -133t136.5 -389t-136.5 -389.5t-337 -133.5t-336.5 133.5t-136 389.5zM254 497.5q0 -188.5 79 -279.5t210 -91t209.5 91t78.5 279.5t-78.5 279.5t-209.5 91t-210 -91t-79 -279.5z" />
<glyph unicode="p" horiz-adv-x="1124" d="M137 -354v1358h170l4 -146q106 162 326 162q184 0 301 -141.5t117 -382.5q0 -240 -122 -380.5t-317 -140.5q-211 0 -305 148v-477h-174zM303 496q0 -186 80 -277.5t209 -91.5q135 0 206.5 96t71.5 273q0 178 -70.5 275t-207.5 97q-125 0 -207 -94t-82 -278z" />
<glyph unicode="q" horiz-adv-x="1124" d="M70 500q0 240 121.5 380t316.5 140q211 0 305 -148v132h174v-1358h-174v491q-106 -162 -326 -162q-184 0 -300.5 141.5t-116.5 383.5zM254 500q0 -178 70.5 -275.5t207.5 -97.5q125 0 207 94t82 279q0 186 -79.5 277t-209.5 91q-135 0 -206.5 -96t-71.5 -272z" />
<glyph unicode="r" horiz-adv-x="675" d="M137 0v1004h170v-179q80 178 289 185q33 0 51 -2v-185q-55 6 -96 6q-123 0 -181.5 -73.5t-58.5 -239.5v-516h-174z" />
<glyph unicode="s" horiz-adv-x="983" d="M57 301l183 16q43 -196 254 -196h2q104 0 170.5 42t66.5 107q0 115 -219 162l-131 27q-299 59 -299 282q0 127 119 203t289 76q166 0 273 -79t138 -210l-180 -16q-37 159 -247 159h-3q-88 0 -151.5 -31.5t-63.5 -90.5q0 -55 40 -85t126 -49l121 -24q170 -35 267 -102.5 t97 -202.5q0 -145 -117.5 -229.5t-299.5 -84.5q-188 0 -304 97.5t-131 228.5z" />
<glyph unicode="t" horiz-adv-x="618" d="M25 860v144h161v276h174v-276h193v-144h-193v-579q0 -84 17.5 -109t89.5 -25h86v-147h-125q-147 0 -194.5 48t-47.5 208v604h-161z" />
<glyph unicode="u" d="M129 381v623h174v-568q0 -147 33 -213q45 -94 188 -94q119 0 185.5 85t66.5 243v547h174v-1004h-174v143q-98 -166 -315 -166q-176 0 -262 117q-70 92 -70 287z" />
<glyph unicode="v" horiz-adv-x="927" d="M0 1004h193l278 -764l277 764h180l-387 -1004h-154z" />
<glyph unicode="w" horiz-adv-x="1351" d="M0 1004h186l197 -738l203 738h180l203 -738l196 738h187l-295 -1004h-158l-227 803l-219 -803h-158z" />
<glyph unicode="x" horiz-adv-x="995" d="M20 0l377 516l-354 488h207l250 -347l252 347h194l-348 -482l381 -522h-207l-276 381l-277 -381h-199z" />
<glyph unicode="y" horiz-adv-x="901" d="M14 1004h193l260 -771l254 771h180l-364 -1047q-59 -172 -129 -241.5t-228 -69.5h-90v151h72q92 0 135 32t80 151l6 20z" />
<glyph unicode="z" horiz-adv-x="929" d="M63 0v143l592 717h-553v144h756v-144l-592 -717h602v-143h-805z" />
<glyph unicode="{" horiz-adv-x="512" d="M20 434v139q88 0 117 48.5t29 148.5v307q0 164 54 223.5t222 59.5h90v-148h-86q-66 0 -86 -25.5t-20 -107.5v-313q0 -125 -39 -181.5t-121 -78.5v-4q82 -23 121 -79t39 -181v-316q0 -82 20.5 -107.5t85.5 -25.5h86v-147h-90q-168 0 -222 59t-54 223v310q0 100 -28.5 148 t-117.5 48z" />
<glyph unicode="|" horiz-adv-x="485" d="M164 -170v1530h158v-1530h-158z" />
<glyph unicode="}" horiz-adv-x="512" d="M-20 -207h86q66 0 86 25.5t20 107.5v316q0 125 39 181t121 79v4q-82 23 -121 79t-39 181v313q0 82 -20.5 107.5t-85.5 25.5h-86v148h90q168 0 222 -59.5t54 -223.5v-307q0 -100 28.5 -148.5t117.5 -48.5v-139q-88 0 -117 -48t-29 -148v-310q0 -164 -54 -223t-222 -59h-90 v147z" />
<glyph unicode="~" horiz-adv-x="1097" d="M41 393q8 127 87 205t206 78q98 0 239.5 -65.5t190.5 -65.5q53 0 90 34.5t41 96.5h162q-8 -127 -87 -205t-206 -78q-82 0 -225.5 65.5t-204.5 65.5q-53 0 -90 -35t-41 -96h-162z" />
<glyph unicode="&#xa1;" horiz-adv-x="464" d="M123 784v220h219v-220h-219zM147 41l37 559h109l37 -559v-397h-183v397z" />
<glyph unicode="&#xa2;" horiz-adv-x="1038" d="M70 500q0 213 116.5 355t315.5 161v180h88v-178q160 -10 264.5 -107.5t124.5 -222.5l-176 -24q-16 82 -72.5 135t-140.5 63v-731q88 12 145.5 66.5t75.5 132.5l178 -23q-25 -127 -134.5 -221t-264.5 -109v-161h-88v161q-203 14 -317.5 158t-114.5 365zM254 502 q0 -164 68.5 -259.5t179.5 -111.5v731q-111 -14 -179.5 -107t-68.5 -253z" />
<glyph unicode="&#xa3;" d="M39 106q53 23 107.5 63t106.5 120t52 172q0 74 -37 170h-227v123h168q-90 172 -90 282q0 174 135 261t321 87q217 0 341 -121.5t120 -324.5l-178 -4q-6 299 -291 299q-106 0 -185 -48t-79 -157q0 -94 98 -274h373v-123h-315q29 -78 28 -142q0 -188 -200 -307l2 -4 q63 25 129 25q51 0 158.5 -37t179.5 -37q104 0 229 51l51 -149q-111 -63 -264 -64q-72 0 -196.5 38t-200.5 38q-139 0 -279 -76z" />
<glyph unicode="&#xa4;" horiz-adv-x="1210" d="M102 262l131 133q-84 117 -83.5 264.5t83.5 264.5l-131 133l95 92l129 -129q121 94 274.5 94t280.5 -96l133 131l94 -92l-135 -135q82 -119 82 -262.5t-84 -260.5l137 -137l-94 -92l-135 133q-123 -94 -279 -94q-154 0 -272 90l-131 -129zM307 659q0 -131 82 -219 t209 -88q133 0 218 88t85 219q0 133 -85 223.5t-218 90.5q-127 0 -209 -90.5t-82 -223.5z" />
<glyph unicode="&#xa5;" horiz-adv-x="1146" d="M-10 1360h203l376 -694l385 694h203l-455 -760h275v-123h-326v-143h326v-123h-326v-211h-174v211h-311v123h311v143h-311v123h264z" />
<glyph unicode="&#xa6;" horiz-adv-x="432" d="M137 -170v582h158v-582h-158zM137 778v582h158v-582h-158z" />
<glyph unicode="&#xa7;" horiz-adv-x="1103" d="M70 600q0 90 63.5 162t163.5 108q-133 96 -133 246q0 127 110.5 197.5t260.5 70.5q166 0 271 -82.5t128 -222.5l-178 -8q-31 168 -230 168q-84 0 -135 -31.5t-51 -83t34 -90.5t120 -84l262 -141q141 -76 209.5 -148.5t68.5 -181.5q0 -96 -59.5 -175t-161.5 -126 q117 -100 117 -229q0 -147 -110.5 -231.5t-276.5 -84.5q-178 0 -289 93.5t-125 253.5l178 8q31 -209 240 -209q92 0 149.5 38t57.5 105q0 61 -39 109.5t-146 105.5l-245 131q-254 135 -254 332zM242 610q0 -57 33.5 -100t115.5 -88l260 -139q35 -20 41 -23q170 78 170 191 q0 63 -46 112.5t-150 104.5l-230 123q-82 -25 -138 -71t-56 -110z" />
<glyph unicode="&#xa8;" horiz-adv-x="733" d="M61 1141v188h175v-188h-175zM498 1141v188h174v-188h-174z" />
<glyph unicode="&#xa9;" horiz-adv-x="1570" d="M82 678q0 307 203.5 505.5t500.5 198.5q295 0 499 -198.5t204 -505.5t-204 -505t-499 -198q-299 0 -501.5 197t-202.5 506zM221 678q0 -254 162 -416t403 -162q244 0 404 161t160 417t-160 416.5t-404 160.5q-242 0 -403.5 -160.5t-161.5 -416.5zM432 694 q0 178 96.5 280.5t262.5 102.5q127 0 209.5 -64.5t109.5 -170.5l-139 -39q-18 76 -68.5 115.5t-118.5 39.5q-90 0 -144 -66.5t-54 -197.5t54 -200.5t144 -69.5q152 0 191 141l141 -37q-33 -98 -118 -160.5t-214 -62.5q-168 0 -260 103.5t-92 285.5z" />
<glyph unicode="&#xaa;" horiz-adv-x="647" d="M55 969q0 80 58 123q68 49 213 61l104 12v21q0 96 -108 96q-111 0 -117 -90l-131 4q8 86 73.5 137t180.5 51q127 0 185 -53t56 -166q-4 -102 -4 -172q0 -96 13 -196h-129l-5 65q-55 -80 -182 -80q-94 0 -150.5 55.5t-56.5 131.5zM197 969q0 -35 26.5 -57.5t69.5 -22.5 q59 0 100 36t41 107v35l-104 -12q-133 -14 -133 -86z" />
<glyph unicode="&#xab;" horiz-adv-x="956" d="M0 500l303 434h186l-286 -434l286 -437h-186zM428 500l303 434h184l-286 -434l286 -437h-184z" />
<glyph unicode="&#xac;" horiz-adv-x="1157" d="M82 655v164h993v-633h-174v469h-819z" />
<glyph unicode="&#xad;" horiz-adv-x="770" d="M82 440v164h606v-164h-606z" />
<glyph unicode="&#xae;" horiz-adv-x="1570" d="M82 678q0 307 203.5 505.5t500.5 198.5q295 0 499 -198.5t204 -505.5t-204 -505t-499 -198q-299 0 -501.5 197t-202.5 506zM221 678q0 -254 162 -416t403 -162q244 0 404 161t160 417t-160 416.5t-404 160.5q-242 0 -403.5 -160.5t-161.5 -416.5zM512 330v745h229 q182 0 267.5 -47t85.5 -182q0 -139 -136 -199l172 -317h-169l-152 284h-143v-284h-154zM666 733h108q166 0 166 110.5t-174 110.5h-100v-221z" />
<glyph unicode="&#xaf;" horiz-adv-x="653" d="M41 1167v144h571v-144h-571z" />
<glyph unicode="&#xb0;" horiz-adv-x="641" d="M41 1104q0 117 82 198.5t196 81.5q117 0 199 -81.5t82 -198.5q0 -115 -82 -197t-199 -82q-115 0 -196.5 82t-81.5 197zM180 1103.5q0 -63.5 39 -106.5t100.5 -43t102.5 44t41 106q0 63 -41 107t-102.5 44t-100.5 -44t-39 -107.5z" />
<glyph unicode="&#xb1;" horiz-adv-x="1157" d="M82 0v164h993v-164h-993zM82 553v164h410v295h174v-295h409v-164h-409v-297h-174v297h-410z" />
<glyph unicode="&#xb2;" horiz-adv-x="659" d="M43 834v112q14 12 41 33q113 90 163 132t111.5 101.5t84 103.5t22.5 87q0 51 -38 82t-93 31q-59 0 -99 -38t-40 -122h-138q-2 121 77 194.5t210 73.5q119 0 191.5 -55.5t72.5 -155.5q0 -55 -26.5 -110.5t-91 -119t-115.5 -107.5t-156 -124h377v-118h-553z" />
<glyph unicode="&#xb3;" horiz-adv-x="692" d="M45 1063l133 14q27 -150 164 -149q68 0 111 33.5t43 91.5q0 129 -203 129h-29v112h23q188 0 188 115q0 51 -38 79t-93 28q-133 0 -158 -142l-133 15q18 109 94 172t205 63q109 0 186.5 -52t77.5 -155q0 -115 -110 -172q63 -25 97 -77t34 -113q0 -113 -85 -174.5 t-214 -61.5q-127 0 -204 71t-89 173z" />
<glyph unicode="&#xb4;" horiz-adv-x="516" d="M61 1118l172 242h222l-248 -242h-146z" />
<glyph unicode="&#xb5;" horiz-adv-x="1091" d="M113 -354q20 94 20 301v1057h174v-582q0 -162 53.5 -228.5t167.5 -66.5q119 0 185.5 85t66.5 243v549h174v-1004h-174v141q-98 -166 -245.5 -166t-227.5 115v-127q1 -213 -22 -317h-172z" />
<glyph unicode="&#xb6;" horiz-adv-x="991" d="M0 1001q0 170 116.5 264.5t342.5 94.5h395v-1530h-143v1397h-232v-1397h-143v836q-141 16 -238.5 101t-97.5 234z" />
<glyph unicode="&#xb7;" horiz-adv-x="430" d="M102 412v219h220v-219h-220z" />
<glyph unicode="&#xb8;" horiz-adv-x="464" d="M41 -336l31 78q53 -27 110 -27q115 0 115 60q0 57 -82 57q-47 0 -74 -16l-57 32l98 158h101l-62 -98q31 6 58 6q68 0 106.5 -35t38.5 -94q0 -72 -63.5 -114t-143.5 -42q-98 0 -176 35z" />
<glyph unicode="&#xb9;" horiz-adv-x="440" d="M25 1417v94q66 2 98.5 8.5t61 28t46.5 62.5h103v-776h-137v583h-172z" />
<glyph unicode="&#xba;" horiz-adv-x="673" d="M55 1083q0 147 81 224t202 77q119 0 201 -76.5t82 -224.5q0 -145 -82 -222t-201 -77q-121 0 -202 77t-81 222zM197 1083q0 -90 37.5 -140t103.5 -50q63 0 102 50t39 140q0 92 -38 141.5t-103.5 49.5t-103 -49.5t-37.5 -141.5z" />
<glyph unicode="&#xbb;" horiz-adv-x="956" d="M41 63l287 437l-287 434h184l303 -434l-303 -437h-184zM467 63l287 437l-287 434h186l303 -434l-303 -437h-186z" />
<glyph unicode="&#xbc;" horiz-adv-x="1695" d="M203 1167v95q66 2 98.5 8t61 27.5t47.5 62.5h102v-776h-137v583h-172zM274 0l953 1360h192l-952 -1360h-193zM1006 180v115l389 481h135v-473h137v-123h-137v-180h-137v180h-387zM1157 303h236v291z" />
<glyph unicode="&#xbd;" horiz-adv-x="1695" d="M203 1167v95q66 2 98.5 8t61 27.5t47.5 62.5h102v-776h-137v583h-172zM274 0l953 1360h192l-952 -1360h-193zM1051 0v113q14 12 41 32q113 90 163 132t111 101.5t84 103.5t23 87q0 51 -38 82t-94 31q-59 0 -99 -38t-40 -122h-137q-2 121 77 195t210 74q119 0 191.5 -55.5 t72.5 -155.5q0 -55 -26.5 -110.5t-91 -119t-116 -107.5t-155.5 -124h377v-119h-553z" />
<glyph unicode="&#xbe;" horiz-adv-x="1695" d="M61 813l134 14q27 -150 163 -149q68 0 111 33.5t43 91.5q0 129 -203 129h-28v112h22q188 0 189 115q0 51 -38 79t-94 28q-133 0 -157 -142l-133 15q18 109 94 172t205 63q109 0 186.5 -52t77.5 -155q0 -115 -111 -172q63 -25 97 -77t34 -113q0 -113 -85 -174.5 t-214 -61.5q-127 0 -204 71t-89 173zM274 0h193l952 1360h-192zM1006 180h387v-180h137v180h137v123h-137v473h-135l-389 -481v-115zM1157 303l236 291v-291h-236z" />
<glyph unicode="&#xbf;" horiz-adv-x="950" d="M25 -45q0 84 43 159.5t86 114.5t120 101q10 8 40 29.5t40.5 29.5t31 27.5t27.5 35t14 39t7 50.5v59h176v-65q0 -43 -11 -81t-22.5 -61.5t-43 -54.5t-45 -42t-57.5 -42t-54 -39q-55 -41 -85 -67.5t-57.5 -77t-27.5 -109.5q0 -88 70.5 -138t185.5 -50q139 0 205.5 81 t70.5 181l174 -6q-2 -182 -132 -296t-328 -114q-176 0 -302 86t-126 250zM410 784v220h219v-220h-219z" />
<glyph unicode="&#xc0;" horiz-adv-x="1255" d="M0 0l512 1360h225l518 -1360h-213l-108 295h-627l-104 -295h-203zM283 1645h245l209 -215h-172zM369 465h503l-254 694z" />
<glyph unicode="&#xc1;" horiz-adv-x="1255" d="M0 0l512 1360h225l518 -1360h-213l-108 295h-627l-104 -295h-203zM369 465h503l-254 694zM496 1430l209 215h245l-282 -215h-172z" />
<glyph unicode="&#xc2;" horiz-adv-x="1255" d="M0 0l512 1360h225l518 -1360h-213l-108 295h-627l-104 -295h-203zM287 1430l256 215h159l250 -215h-202l-129 106l-132 -106h-202zM369 465h503l-254 694z" />
<glyph unicode="&#xc3;" horiz-adv-x="1255" d="M0 0l512 1360h225l518 -1360h-213l-108 295h-627l-104 -295h-203zM272 1434q18 106 77 159.5t143 53.5q61 0 139 -45.5t117 -45.5q78 0 90 86h135q-18 -111 -78.5 -163t-142.5 -52q-61 0 -142.5 45.5t-115.5 45.5q-76 0 -86 -84h-136zM369 465h503l-254 694z" />
<glyph unicode="&#xc4;" horiz-adv-x="1255" d="M0 0l512 1360h225l518 -1360h-213l-108 295h-627l-104 -295h-203zM315 1444v188h174v-188h-174zM369 465h503l-254 694zM752 1444v188h174v-188h-174z" />
<glyph unicode="&#xc5;" horiz-adv-x="1255" d="M0 0l512 1360h225l518 -1360h-213l-108 295h-627l-104 -295h-203zM369 465h503l-254 694zM449 1572.5q0 69.5 50 116t121.5 46.5t122 -46.5t50.5 -116t-49.5 -115.5t-123 -46t-122.5 46t-49 115.5zM539 1573q0 -35 24.5 -57.5t57 -22.5t57 22.5t24.5 57.5t-24.5 58.5 t-57 23.5t-57 -23.5t-24.5 -58.5z" />
<glyph unicode="&#xc6;" horiz-adv-x="1998" d="M0 0l1006 1360h925v-172h-731v-402h688v-172h-688v-442h731v-172h-925v295h-578l-215 -295h-213zM553 465h453v616z" />
<glyph unicode="&#xc7;" horiz-adv-x="1372" d="M96 682q0 322 174 512t467 190q215 0 367.5 -112.5t198.5 -304.5l-189 -27q-33 127 -130 202t-255 75q-190 0 -312 -139.5t-122 -395.5q0 -252 121 -395.5t317 -143.5q160 0 258.5 74t130.5 203l189 -27q-45 -197 -202 -306.5t-382 -111.5l-41 -67q31 6 57 6 q68 0 107 -35t39 -94q0 -72 -63.5 -114t-143.5 -42q-98 0 -176 35l31 78q53 -27 110 -27q115 0 115 60q0 57 -82 57q-47 0 -74 -16l-57 32l82 134q-252 29 -393.5 218t-141.5 482z" />
<glyph unicode="&#xc8;" horiz-adv-x="1167" d="M164 0v1360h936v-172h-742v-402h699v-172h-699v-442h742v-172h-936zM354 1645h246l209 -215h-172z" />
<glyph unicode="&#xc9;" horiz-adv-x="1167" d="M164 0v1360h936v-172h-742v-402h699v-172h-699v-442h742v-172h-936zM471 1430l209 215h246l-283 -215h-172z" />
<glyph unicode="&#xca;" horiz-adv-x="1167" d="M164 0v1360h936v-172h-742v-402h699v-172h-699v-442h742v-172h-936zM309 1430l256 215h160l250 -215h-203l-129 106l-131 -106h-203z" />
<glyph unicode="&#xcb;" horiz-adv-x="1167" d="M164 0v1360h936v-172h-742v-402h699v-172h-699v-442h742v-172h-936zM319 1444v188h175v-188h-175zM756 1444v188h174v-188h-174z" />
<glyph unicode="&#xcc;" horiz-adv-x="522" d="M-100 1645h245l209 -215h-172zM164 0v1360h194v-1360h-194z" />
<glyph unicode="&#xcd;" horiz-adv-x="522" d="M164 0v1360h194v-1360h-194zM166 1430l209 215h246l-283 -215h-172z" />
<glyph unicode="&#xce;" horiz-adv-x="522" d="M-27 1430l215 215h160l209 -215h-182l-109 106l-110 -106h-183zM164 0v1360h194v-1360h-194z" />
<glyph unicode="&#xcf;" horiz-adv-x="522" d="M0 1444v188h174v-188h-174zM164 0v1360h194v-1360h-194zM350 1444v188h174v-188h-174z" />
<glyph unicode="&#xd0;" horiz-adv-x="1394" d="M41 614v172h156v574h315q786 0 786 -680t-786 -680h-315v614h-156zM391 172h115q102 0 174 7t157 37t138 82t89 149.5t36 232.5t-36 232.5t-89 149.5t-138 82t-157 37t-174 7h-115v-402h268v-172h-268v-442z" />
<glyph unicode="&#xd1;" horiz-adv-x="1437" d="M164 0v1360h285l630 -1155v1155h195v-1360h-285l-631 1157v-1157h-194zM395 1434q18 106 76.5 159.5t142.5 53.5q61 0 139 -45.5t117 -45.5q78 0 91 86h135q-18 -111 -79 -163t-143 -52q-61 0 -142 45.5t-116 45.5q-76 0 -86 -84h-135z" />
<glyph unicode="&#xd2;" horiz-adv-x="1486" d="M96 680q0 311 181.5 507.5t467.5 196.5q291 0 468.5 -190t177.5 -514t-179.5 -514.5t-470.5 -190.5q-293 0 -469 195t-176 510zM295 680q0 -254 126 -395.5t322.5 -141.5t322.5 141.5t126 395.5t-126 395.5t-322.5 141.5t-322.5 -141.5t-126 -395.5zM440 1645h246 l209 -215h-172z" />
<glyph unicode="&#xd3;" horiz-adv-x="1486" d="M96 680q0 311 181.5 507.5t467.5 196.5q291 0 468.5 -190t177.5 -514t-179.5 -514.5t-470.5 -190.5q-293 0 -469 195t-176 510zM295 680q0 -254 126 -395.5t322.5 -141.5t322.5 141.5t126 395.5t-126 395.5t-322.5 141.5t-322.5 -141.5t-126 -395.5zM561 1430l209 215 h246l-283 -215h-172z" />
<glyph unicode="&#xd4;" horiz-adv-x="1486" d="M96 680q0 311 181.5 507.5t467.5 196.5q291 0 468.5 -190t177.5 -514t-179.5 -514.5t-470.5 -190.5q-293 0 -469 195t-176 510zM295 680q0 -254 126 -395.5t322.5 -141.5t322.5 141.5t126 395.5t-126 395.5t-322.5 141.5t-322.5 -141.5t-126 -395.5zM408 1430l256 215 h159l250 -215h-203l-129 106l-131 -106h-202z" />
<glyph unicode="&#xd5;" horiz-adv-x="1486" d="M96 680q0 311 181.5 507.5t467.5 196.5q291 0 468.5 -190t177.5 -514t-179.5 -514.5t-470.5 -190.5q-293 0 -469 195t-176 510zM295 680q0 -254 126 -395.5t322.5 -141.5t322.5 141.5t126 395.5t-126 395.5t-322.5 141.5t-322.5 -141.5t-126 -395.5zM381 1434 q18 106 76.5 159.5t142.5 53.5q61 0 139 -45.5t117 -45.5q78 0 90 86h135q-18 -111 -78.5 -163t-142.5 -52q-61 0 -142 45.5t-116 45.5q-76 0 -86 -84h-135z" />
<glyph unicode="&#xd6;" horiz-adv-x="1486" d="M96 680q0 311 181.5 507.5t467.5 196.5q291 0 468.5 -190t177.5 -514t-179.5 -514.5t-470.5 -190.5q-293 0 -469 195t-176 510zM295 680q0 -254 126 -395.5t322.5 -141.5t322.5 141.5t126 395.5t-126 395.5t-322.5 141.5t-322.5 -141.5t-126 -395.5zM430 1444v188h174 v-188h-174zM866 1444v188h174v-188h-174z" />
<glyph unicode="&#xd7;" horiz-adv-x="976" d="M41 193l319 317l-319 321l123 123l319 -319l320 317l123 -123l-320 -319l330 -330l-123 -123l-330 330l-319 -317z" />
<glyph unicode="&#xd8;" horiz-adv-x="1474" d="M96 680q0 313 178.5 508.5t464.5 195.5q244 0 410 -137l121 142l78 -66l-127 -149q158 -190 157 -494q0 -324 -176 -514.5t-467 -190.5q-244 0 -413 144l-125 -146l-76 68l129 152q-154 188 -154 487zM295 680q0 -205 82 -338l651 762q-119 113 -291 113 q-195 0 -318.5 -141.5t-123.5 -395.5zM440 260q117 -117 297 -117q195 0 319 141.5t124 395.5q0 211 -86 344z" />
<glyph unicode="&#xd9;" horiz-adv-x="1392" d="M143 561v799h195v-819q0 -207 82 -302.5t274.5 -95.5t276.5 103.5t84 314.5v799h194v-782q0 -309 -130 -456t-425 -147q-291 0 -421 134.5t-130 451.5zM414 1645h245l209 -215h-172z" />
<glyph unicode="&#xda;" horiz-adv-x="1392" d="M143 561v799h195v-819q0 -207 82 -302.5t274.5 -95.5t276.5 103.5t84 314.5v799h194v-782q0 -309 -130 -456t-425 -147q-291 0 -421 134.5t-130 451.5zM530 1430l209 215h246l-283 -215h-172z" />
<glyph unicode="&#xdb;" horiz-adv-x="1392" d="M143 561v799h195v-819q0 -207 82 -302.5t274.5 -95.5t276.5 103.5t84 314.5v799h194v-782q0 -309 -130 -456t-425 -147q-291 0 -421 134.5t-130 451.5zM367 1430l256 215h159l250 -215h-203l-129 106l-131 -106h-202z" />
<glyph unicode="&#xdc;" horiz-adv-x="1392" d="M143 561v799h195v-819q0 -207 82 -302.5t274.5 -95.5t276.5 103.5t84 314.5v799h194v-782q0 -309 -130 -456t-425 -147q-291 0 -421 134.5t-130 451.5zM377 1444v188h174v-188h-174zM813 1444v188h174v-188h-174z" />
<glyph unicode="&#xdd;" horiz-adv-x="1187" d="M0 1360h213l377 -674l385 674h213l-506 -846v-514h-195v518zM406 1430l208 215h246l-282 -215h-172z" />
<glyph unicode="&#xde;" horiz-adv-x="1179" d="M164 0v1360h194v-240h207q276 0 425 -94t149 -333.5t-148.5 -334t-425.5 -94.5h-207v-264h-194zM358 436h222q86 0 143 9.5t110.5 34t80 77.5t26.5 135t-26.5 135.5t-80 78t-110.5 33.5t-143 9h-222v-512z" />
<glyph unicode="&#xdf;" horiz-adv-x="1204" d="M137 0v922q0 225 105 333q123 129 383 129q188 0 309 -88t121 -235q0 -209 -207 -295q287 -72 287 -365q0 -221 -145.5 -323.5t-362.5 -102.5q-100 0 -207 21l37 166q78 -25 178 -25q313 0 313 262q0 274 -387 275h-6v155h4q154 0 237 53.5t83 153.5q0 90 -71 143.5 t-185 53.5q-184 0 -254 -90q-57 -74 -58 -232v-911h-174z" />
<glyph unicode="&#xe0;" horiz-adv-x="1054" d="M82 301q0 -137 93 -231.5t261 -94.5q236 0 338 166l6 -141h168q-23 242 -20 387l4 254q2 203 -91 292t-306 89q-174 0 -293 -85t-127 -237l170 -6q8 86 67.5 136.5t173.5 50.5q111 0 171.5 -46.5t60.5 -160.5v-37l-195 -21q-233 -27 -346 -88q-135 -76 -135 -227z M266 295q0 82 72 123t223 55l209 21v-60q0 -160 -89 -233.5t-212 -73.5q-90 0 -146.5 45t-56.5 123zM283 1360h221l172 -242h-146z" />
<glyph unicode="&#xe1;" horiz-adv-x="1054" d="M82 301q0 -137 93 -231.5t261 -94.5q236 0 338 166l6 -141h168q-23 242 -20 387l4 254q2 203 -91 292t-306 89q-174 0 -293 -85t-127 -237l170 -6q8 86 67.5 136.5t173.5 50.5q111 0 171.5 -46.5t60.5 -160.5v-37l-195 -21q-233 -27 -346 -88q-135 -76 -135 -227z M266 295q0 82 72 123t223 55l209 21v-60q0 -160 -89 -233.5t-212 -73.5q-90 0 -146.5 45t-56.5 123zM387 1118l172 242h221l-248 -242h-145z" />
<glyph unicode="&#xe2;" horiz-adv-x="1054" d="M82 301q0 -137 93 -231.5t261 -94.5q236 0 338 166l6 -141h168q-23 242 -20 387l4 254q2 203 -91 292t-306 89q-174 0 -293 -85t-127 -237l170 -6q8 86 67.5 136.5t173.5 50.5q111 0 171.5 -46.5t60.5 -160.5v-37l-195 -21q-233 -27 -346 -88q-135 -76 -135 -227z M193 1118l251 242h168l246 -242h-182l-150 123l-151 -123h-182zM266 295q0 82 72 123t223 55l209 21v-60q0 -160 -89 -233.5t-212 -73.5q-90 0 -146.5 45t-56.5 123z" />
<glyph unicode="&#xe3;" horiz-adv-x="1054" d="M82 301q0 -137 93 -231.5t261 -94.5q236 0 338 166l6 -141h168q-23 242 -20 387l4 254q2 203 -91 292t-306 89q-174 0 -293 -85t-127 -237l170 -6q8 86 67.5 136.5t173.5 50.5q111 0 171.5 -46.5t60.5 -160.5v-37l-195 -21q-233 -27 -346 -88q-135 -76 -135 -227z M182 1137q18 106 76.5 159.5t142.5 53.5q61 0 139 -45t117 -45q78 0 91 86h135q-18 -111 -79 -163.5t-142 -52.5q-61 0 -142.5 45.5t-116.5 45.5q-76 0 -86 -84h-135zM266 295q0 82 72 123t223 55l209 21v-60q0 -160 -89 -233.5t-212 -73.5q-90 0 -146.5 45t-56.5 123z" />
<glyph unicode="&#xe4;" horiz-adv-x="1054" d="M82 301q0 -137 93 -231.5t261 -94.5q236 0 338 166l6 -141h168q-23 242 -20 387l4 254q2 203 -91 292t-306 89q-174 0 -293 -85t-127 -237l170 -6q8 86 67.5 136.5t173.5 50.5q111 0 171.5 -46.5t60.5 -160.5v-37l-195 -21q-233 -27 -346 -88q-135 -76 -135 -227z M223 1141v188h174v-188h-174zM266 295q0 82 72 123t223 55l209 21v-60q0 -160 -89 -233.5t-212 -73.5q-90 0 -146.5 45t-56.5 123zM659 1141v188h175v-188h-175z" />
<glyph unicode="&#xe5;" horiz-adv-x="1054" d="M82 301q0 -137 93 -231.5t261 -94.5q236 0 338 166l6 -141h168q-23 242 -20 387l4 254q2 203 -91 292t-306 89q-174 0 -293 -85t-127 -237l170 -6q8 86 67.5 136.5t173.5 50.5q111 0 171.5 -46.5t60.5 -160.5v-37l-195 -21q-233 -27 -346 -88q-135 -76 -135 -227z M266 295q0 82 72 123t223 55l209 21v-60q0 -160 -89 -233.5t-212 -73.5q-90 0 -146.5 45t-56.5 123zM371 1263.5q0 69.5 50 115.5t121.5 46t122 -46t50.5 -115.5t-49.5 -115.5t-123 -46t-122.5 46t-49 115.5zM461 1263.5q0 -34.5 24.5 -57t57 -22.5t57.5 22.5t25 57 t-25 58.5t-57.5 24t-57 -24t-24.5 -58.5z" />
<glyph unicode="&#xe6;" horiz-adv-x="1757" d="M82 301q0 150 135 225q113 66 346 90l195 21v37q0 115 -60.5 161t-171.5 46q-225 0 -239 -195l-172 8q8 154 125.5 240t294.5 86q256 0 342 -162q127 162 352 162q231 0 359 -163t110 -411h-774q0 -141 83 -229t226 -88q203 0 270 176l178 -22q-37 -131 -155.5 -219.5 t-296.5 -88.5q-268 0 -385 209q-55 -104 -166 -156.5t-236 -52.5q-172 0 -266 94.5t-94 231.5zM266 295q0 -78 56.5 -123t146.5 -45q123 0 212 73.5t89 233.5v60l-209 -21q-152 -14 -223.5 -55t-71.5 -123zM926 592h587q-4 111 -78.5 195.5t-203.5 84.5q-133 0 -215 -74.5 t-90 -205.5z" />
<glyph unicode="&#xe7;" horiz-adv-x="1038" d="M70 500q0 227 131 373.5t356 146.5q176 0 290 -101.5t132 -230.5l-176 -24q-18 94 -88 148t-170 54q-127 0 -209 -94t-82 -270q0 -180 83 -276.5t208 -96.5q106 0 177 56.5t89 144.5l178 -23q-25 -135 -146.5 -231t-291.5 -101l-41 -67q31 6 57 6q68 0 107 -35t39 -94 q0 -72 -63.5 -114t-143.5 -42q-98 0 -176 35l30 78q53 -27 111 -27q115 0 115 60q0 57 -82 57q-47 0 -74 -16l-57 32l82 134q-182 29 -283.5 170t-101.5 348z" />
<glyph unicode="&#xe8;" d="M70 498q0 233 136 377.5t351 144.5q231 0 360.5 -163t110.5 -411h-774q0 -145 84 -231t213 -86q213 0 283 176l178 -22q-37 -133 -157 -220.5t-300 -87.5q-236 0 -360.5 145.5t-124.5 377.5zM256 592h588q-4 111 -80 195.5t-207 84.5t-213 -74.5t-88 -205.5zM305 1360 h221l172 -242h-145z" />
<glyph unicode="&#xe9;" d="M70 498q0 233 136 377.5t351 144.5q231 0 360.5 -163t110.5 -411h-774q0 -145 84 -231t213 -86q213 0 283 176l178 -22q-37 -133 -157 -220.5t-300 -87.5q-236 0 -360.5 145.5t-124.5 377.5zM256 592h588q-4 111 -80 195.5t-207 84.5t-213 -74.5t-88 -205.5zM412 1118 l172 242h221l-248 -242h-145z" />
<glyph unicode="&#xea;" d="M70 498q0 233 136 377.5t351 144.5q231 0 360.5 -163t110.5 -411h-774q0 -145 84 -231t213 -86q213 0 283 176l178 -22q-37 -133 -157 -220.5t-300 -87.5q-236 0 -360.5 145.5t-124.5 377.5zM215 1118l252 242h168l246 -242h-183l-149 123l-152 -123h-182zM256 592h588 q-4 111 -80 195.5t-207 84.5t-213 -74.5t-88 -205.5z" />
<glyph unicode="&#xeb;" d="M70 498q0 233 136 377.5t351 144.5q231 0 360.5 -163t110.5 -411h-774q0 -145 84 -231t213 -86q213 0 283 176l178 -22q-37 -133 -157 -220.5t-300 -87.5q-236 0 -360.5 145.5t-124.5 377.5zM244 1141v188h174v-188h-174zM256 592h588q-4 111 -80 195.5t-207 84.5 t-213 -74.5t-88 -205.5zM680 1141v188h174v-188h-174z" />
<glyph unicode="&#xec;" horiz-adv-x="448" d="M-90 1360h221l172 -242h-145zM137 0v1004h174v-1004h-174z" />
<glyph unicode="&#xed;" horiz-adv-x="448" d="M137 0v1004h174v-1004h-174zM139 1118l172 242h221l-247 -242h-146z" />
<glyph unicode="&#xee;" horiz-adv-x="448" d="M-68 1098l232 262h127l225 -262h-192l-99 135l-100 -135h-193zM137 0v1004h174v-1004h-174z" />
<glyph unicode="&#xef;" horiz-adv-x="448" d="M-39 1145v188h174v-188h-174zM137 0v1004h174v-1004h-174zM315 1145v188h174v-188h-174z" />
<glyph unicode="&#xf0;" horiz-adv-x="1091" d="M70 500q0 240 121.5 380t316.5 140q186 0 293 -148l2 2q-74 168 -254 287l-148 -90l-86 47l150 92q-49 27 -152 76l125 113q76 -37 174 -96l131 81l88 -49l-143 -88q322 -246 322 -655q0 -305 -129 -461t-351 -156q-215 0 -337.5 139.5t-122.5 385.5zM254 500 q0 -178 70.5 -275.5t207.5 -97.5q131 0 210 93t79 279.5t-79.5 278.5t-209.5 92q-135 0 -206.5 -97t-71.5 -273z" />
<glyph unicode="&#xf1;" horiz-adv-x="1099" d="M137 0v1004h174v-140q100 156 330 156q199 0 283 -137q55 -90 55 -267v-616h-174v569q0 147 -37 213q-51 86 -186 86q-127 0 -199 -86t-72 -247v-535h-174zM227 1137q18 106 76.5 159.5t142.5 53.5q61 0 139.5 -45t116.5 -45q78 0 91 86h135q-18 -111 -79 -163.5 t-142 -52.5q-61 0 -142.5 45.5t-115.5 45.5q-77 0 -87 -84h-135z" />
<glyph unicode="&#xf2;" horiz-adv-x="1085" d="M70 498q0 256 136 389t336.5 133t337 -133t136.5 -389t-136.5 -389.5t-337 -133.5t-336.5 133.5t-136 389.5zM254 497.5q0 -188.5 79 -279.5t210 -91t209.5 91t78.5 279.5t-78.5 279.5t-209.5 91t-210 -91t-79 -279.5zM326 1360h221l172 -242h-146z" />
<glyph unicode="&#xf3;" horiz-adv-x="1085" d="M70 498q0 256 136 389t336.5 133t337 -133t136.5 -389t-136.5 -389.5t-337 -133.5t-336.5 133.5t-136 389.5zM254 497.5q0 -188.5 79 -279.5t210 -91t209.5 91t78.5 279.5t-78.5 279.5t-209.5 91t-210 -91t-79 -279.5zM436 1118l172 242h221l-247 -242h-146z" />
<glyph unicode="&#xf4;" horiz-adv-x="1085" d="M70 498q0 256 136 389t336.5 133t337 -133t136.5 -389t-136.5 -389.5t-337 -133.5t-336.5 133.5t-136 389.5zM209 1118l252 242h168l245 -242h-182l-149 123l-152 -123h-182zM254 497.5q0 -188.5 79 -279.5t210 -91t209.5 91t78.5 279.5t-78.5 279.5t-209.5 91t-210 -91 t-79 -279.5z" />
<glyph unicode="&#xf5;" horiz-adv-x="1085" d="M70 498q0 256 136 389t336.5 133t337 -133t136.5 -389t-136.5 -389.5t-337 -133.5t-336.5 133.5t-136 389.5zM203 1137q18 106 76.5 159.5t142.5 53.5q61 0 139 -45t117 -45q78 0 90 86h135q-18 -111 -78.5 -163.5t-142.5 -52.5q-61 0 -142 45.5t-116 45.5q-76 0 -86 -84 h-135zM254 497.5q0 -188.5 79 -279.5t210 -91t209.5 91t78.5 279.5t-78.5 279.5t-209.5 91t-210 -91t-79 -279.5z" />
<glyph unicode="&#xf6;" horiz-adv-x="1085" d="M70 498q0 256 136 389t336.5 133t337 -133t136.5 -389t-136.5 -389.5t-337 -133.5t-336.5 133.5t-136 389.5zM238 1141v188h174v-188h-174zM254 497.5q0 -188.5 79 -279.5t210 -91t209.5 91t78.5 279.5t-78.5 279.5t-209.5 91t-210 -91t-79 -279.5zM674 1141v188h174 v-188h-174z" />
<glyph unicode="&#xf7;" horiz-adv-x="1136" d="M72 410h993v163h-993v-163zM463 61v220h219v-220h-219zM463 723v219h219v-219h-219z" />
<glyph unicode="&#xf8;" horiz-adv-x="1089" d="M70 498q0 254 138 388t337 134q174 0 301 -102l90 104l78 -66l-99 -112q104 -137 105 -346q0 -254 -138.5 -388.5t-336.5 -134.5q-176 0 -299 99l-86 -99l-76 68l90 104q-104 137 -104 351zM254 498q0 -127 39 -215l446 514q-74 72 -194 71q-133 0 -212 -91t-79 -279z M352 197q70 -70 193 -70q133 0 212 91t79 280q0 131 -37 211z" />
<glyph unicode="&#xf9;" d="M129 381v623h174v-568q0 -147 33 -213q45 -94 188 -94q119 0 185.5 85t66.5 243v547h174v-1004h-174v143q-98 -166 -315 -166q-176 0 -262 117q-70 92 -70 287zM303 1360h221l172 -242h-145z" />
<glyph unicode="&#xfa;" d="M129 381v623h174v-568q0 -147 33 -213q45 -94 188 -94q119 0 185.5 85t66.5 243v547h174v-1004h-174v143q-98 -166 -315 -166q-176 0 -262 117q-70 92 -70 287zM414 1118l172 242h221l-248 -242h-145z" />
<glyph unicode="&#xfb;" d="M129 381v623h174v-568q0 -147 33 -213q45 -94 188 -94q119 0 185.5 85t66.5 243v547h174v-1004h-174v143q-98 -166 -315 -166q-176 0 -262 117q-70 92 -70 287zM221 1118l252 242h168l246 -242h-182l-150 123l-152 -123h-182z" />
<glyph unicode="&#xfc;" d="M129 381v623h174v-568q0 -147 33 -213q45 -94 188 -94q119 0 185.5 85t66.5 243v547h174v-1004h-174v143q-98 -166 -315 -166q-176 0 -262 117q-70 92 -70 287zM250 1141v188h174v-188h-174zM686 1141v188h174v-188h-174z" />
<glyph unicode="&#xfd;" horiz-adv-x="901" d="M14 1004l369 -1004l-6 -20q-37 -119 -80 -151t-135 -32h-72v-151h90q158 0 227.5 69.5t129.5 241.5l364 1047h-180l-254 -771l-260 771h-193zM352 1118l172 242h221l-247 -242h-146z" />
<glyph unicode="&#xfe;" horiz-adv-x="1124" d="M137 -354v1714h174v-502q106 162 326 162q184 0 301 -141.5t117 -382.5q0 -240 -122 -380.5t-317 -140.5q-211 0 -305 148v-477h-174zM303 496q0 -186 80 -277.5t209 -91.5q135 0 206.5 96t71.5 273q0 178 -70.5 275t-207.5 97q-125 0 -207 -94t-82 -278z" />
<glyph unicode="&#xff;" horiz-adv-x="901" d="M14 1004l369 -1004l-6 -20q-37 -119 -80 -151t-135 -32h-72v-151h90q158 0 227.5 69.5t129.5 241.5l364 1047h-180l-254 -771l-260 771h-193zM166 1141v188h174v-188h-174zM602 1141v188h174v-188h-174z" />
<glyph unicode="&#x152;" horiz-adv-x="2158" d="M96 680q0 313 178.5 508.5t464.5 195.5q262 0 426 -163v139h926v-172h-731v-402h688v-172h-688v-442h731v-172h-926v141q-166 -166 -430 -166q-293 0 -466 195t-173 510zM295 680q0 -254 124 -395.5t318.5 -141.5t318.5 141.5t124 395.5t-124 395.5t-318.5 141.5 t-318.5 -141.5t-124 -395.5z" />
<glyph unicode="&#x153;" horiz-adv-x="1835" d="M70 498q0 254 138 388t337 134q252 0 377 -203q127 203 385 203q231 0 359 -163t110 -411h-775q0 -147 86.5 -232t219.5 -85q202 0 274 176l178 -22q-35 -129 -154.5 -218.5t-297.5 -89.5q-264 0 -387 201q-123 -201 -375 -201q-199 0 -337 134.5t-138 388.5zM254 497.5 q0 -188.5 79 -279.5t212 -91t212 91t79 279.5t-79 279.5t-212 91t-212 -91t-79 -279.5zM1004 592h587q-4 111 -78.5 195.5t-203.5 84.5q-131 0 -214 -73.5t-91 -206.5z" />
<glyph unicode="&#x178;" horiz-adv-x="1187" d="M0 1360h213l377 -674l385 674h213l-506 -846v-514h-195v518zM285 1444v188h174v-188h-174zM721 1444v188h174v-188h-174z" />
<glyph unicode="&#x2c6;" horiz-adv-x="747" d="M41 1118l252 242h168l246 -242h-183l-149 123l-152 -123h-182z" />
<glyph unicode="&#x2dc;" horiz-adv-x="782" d="M41 1137q18 106 76.5 159.5t142.5 53.5q61 0 139 -45t117 -45q78 0 90 86h135q-18 -111 -78.5 -163.5t-142.5 -52.5q-61 0 -142 45.5t-116 45.5q-76 0 -86 -84h-135z" />
<glyph unicode="&#x2000;" horiz-adv-x="867" />
<glyph unicode="&#x2001;" horiz-adv-x="1735" />
<glyph unicode="&#x2002;" horiz-adv-x="867" />
<glyph unicode="&#x2003;" horiz-adv-x="1735" />
<glyph unicode="&#x2004;" horiz-adv-x="578" />
<glyph unicode="&#x2005;" horiz-adv-x="433" />
<glyph unicode="&#x2006;" horiz-adv-x="289" />
<glyph unicode="&#x2007;" horiz-adv-x="289" />
<glyph unicode="&#x2008;" horiz-adv-x="216" />
<glyph unicode="&#x2009;" horiz-adv-x="347" />
<glyph unicode="&#x200a;" horiz-adv-x="96" />
<glyph unicode="&#x2010;" horiz-adv-x="770" d="M82 440v164h606v-164h-606z" />
<glyph unicode="&#x2011;" horiz-adv-x="770" d="M82 440v164h606v-164h-606z" />
<glyph unicode="&#x2012;" horiz-adv-x="770" d="M82 440v164h606v-164h-606z" />
<glyph unicode="&#x2013;" horiz-adv-x="974" d="M72 440v164h831v-164h-831z" />
<glyph unicode="&#x2014;" horiz-adv-x="1376" d="M61 440v164h1254v-164h-1254z" />
<glyph unicode="&#x2018;" horiz-adv-x="464" d="M123 877v233l117 250h110l-100 -264h92v-219h-219z" />
<glyph unicode="&#x2019;" horiz-adv-x="464" d="M115 877l100 264h-92v219h219v-234l-117 -249h-110z" />
<glyph unicode="&#x201a;" horiz-adv-x="464" d="M115 -264l100 264h-92v219h219v-233l-117 -250h-110z" />
<glyph unicode="&#x201c;" horiz-adv-x="784" d="M123 877v233l117 250h110l-100 -264h92v-219h-219zM442 877v233l117 250h111l-101 -264h93v-219h-220z" />
<glyph unicode="&#x201d;" horiz-adv-x="784" d="M115 877l100 264h-92v219h219v-234l-117 -249h-110zM434 877l101 264h-93v219h220v-234l-117 -249h-111z" />
<glyph unicode="&#x201e;" horiz-adv-x="802" d="M115 -264l100 264h-92v219h219v-233l-117 -250h-110zM453 -264l100 264h-92v219h219v-233l-117 -250h-110z" />
<glyph unicode="&#x2022;" horiz-adv-x="849" d="M82 530q0 139 98.5 238.5t237.5 99.5q147 0 248.5 -98t101.5 -240q0 -147 -100.5 -247.5t-249.5 -100.5q-139 0 -237.5 100.5t-98.5 247.5z" />
<glyph unicode="&#x2026;" horiz-adv-x="1482" d="M123 0v219h219v-219h-219zM633 0v219h219v-219h-219zM1141 0v219h219v-219h-219z" />
<glyph unicode="&#x202f;" horiz-adv-x="347" />
<glyph unicode="&#x2039;" horiz-adv-x="530" d="M0 500l303 434h186l-286 -434l286 -437h-186z" />
<glyph unicode="&#x203a;" horiz-adv-x="530" d="M41 63l287 437l-287 434h186l303 -434l-303 -437h-186z" />
<glyph unicode="&#x205f;" horiz-adv-x="433" />
<glyph unicode="&#x20ac;" horiz-adv-x="1335" d="M-29 492l82 120h113q0 10 -1 36t-1 38q0 31 4 88h-197l82 121h129q47 231 201 360t383 129q207 0 354.5 -124.5t171.5 -331.5l-180 -6q-18 150 -116.5 230.5t-242 80.5t-243.5 -86t-137 -252h530l-82 -121h-467q-4 -57 -4 -88q0 -51 2 -74h398l-82 -120h-301 q37 -178 137 -271.5t250 -93.5q145 0 243.5 80t118.5 231l180 -6q-25 -209 -175 -333t-361 -124q-238 0 -388.5 135.5t-193.5 381.5h-207z" />
<glyph unicode="&#x2122;" horiz-adv-x="1615" d="M10 1235v125h627v-125h-238v-635h-151v635h-238zM700 600v760h236l197 -569l190 569h231v-760h-151v559l-199 -559h-151l-201 559v-559h-152z" />
<glyph unicode="&#x25fc;" horiz-adv-x="1003" d="M0 0v1004h1004v-1004h-1004z" />
<glyph unicode="&#xfb01;" horiz-adv-x="1044" d="M39 860v144h141v73q0 164 54.5 223.5t222.5 59.5h90v-148h-86q-68 0 -87.5 -25.5t-19.5 -107.5v-75h193v-144h-193v-860h-174v860h-141zM733 0v1004h174v-1004h-174zM733 1151v209h174v-209h-174z" />
<glyph unicode="&#xfb02;" horiz-adv-x="1044" d="M39 860v144h141v73q0 164 54.5 223.5t222.5 59.5h90v-148h-86q-68 0 -87.5 -25.5t-19.5 -107.5v-75h193v-144h-193v-860h-174v860h-141zM733 0v1360h174v-1360h-174z" />
<glyph unicode="&#xfb03;" horiz-adv-x="1640" d="M39 860v144h141v73q0 164 54.5 223.5t222.5 59.5h90v-148h-86q-68 0 -87.5 -25.5t-19.5 -107.5v-75h193v-144h-193v-860h-174v860h-141zM635 860v144h141v73q0 164 54.5 223.5t222.5 59.5h90v-148h-86q-66 0 -86.5 -25.5t-20.5 -107.5v-75h193v-144h-193v-860h-174v860 h-141zM1329 0v1004h174v-1004h-174zM1329 1151v209h174v-209h-174z" />
<glyph unicode="&#xfb04;" horiz-adv-x="1640" d="M39 860v144h141v73q0 164 54.5 223.5t222.5 59.5h90v-148h-86q-68 0 -87.5 -25.5t-19.5 -107.5v-75h193v-144h-193v-860h-174v860h-141zM635 860v144h141v73q0 164 54.5 223.5t222.5 59.5h90v-148h-86q-66 0 -86.5 -25.5t-20.5 -107.5v-75h193v-144h-193v-860h-174v860 h-141zM1329 0v1360h174v-1360h-174z" />
</font>
</defs>
</svg>
