<?xml version="1.0" standalone="no"?>
<!DOCTYPE svg PUBLIC "-//W3C//DTD SVG 1.1//EN" "http://www.w3.org/Graphics/SVG/1.1/DTD/svg11.dtd" >
<svg xmlns="http://www.w3.org/2000/svg">
<metadata></metadata>
<defs>
<font id="suisse_bp_monoregular" horiz-adv-x="1228" >
<font-face units-per-em="2048" ascent="1536" descent="-512" />
<missing-glyph horiz-adv-x="500" />
<glyph horiz-adv-x="0" />
<glyph unicode="&#xd;" />
<glyph horiz-adv-x="0" />
<glyph horiz-adv-x="0" />
<glyph unicode=" " />
<glyph unicode="!" d="M504 0v219h219v-219h-219zM516 963v397h182v-397l-36 -560h-109z" />
<glyph unicode="&#x22;" d="M371 1360h194l-39 -483h-116zM662 1360h194l-39 -483h-117z" />
<glyph unicode="#" d="M45 422l18 135h271l43 311h-268l18 136h270l49 356h142l-49 -356h235l49 356h142l-50 -356h254l-18 -136h-256l-43 -311h254l-19 -135h-253l-60 -422h-141l59 422h-235l-60 -422h-141l59 422h-270zM475 557h236l43 311h-236z" />
<glyph unicode="$" d="M133 432h180q10 -139 77 -214t179 -91v502l-61 14q-61 14 -120.5 44t-107 76t-77 107.5t-29.5 141.5q0 92 34 158.5t89 112.5t127 69.5t145 29.5v162h105v-164q74 -6 141.5 -32.5t121.5 -72.5t90 -113.5t46 -160.5h-180q-6 57 -26.5 98.5t-50.5 69t-66.5 42t-75.5 20.5 v-449l10 -2q68 -18 138.5 -42.5t129 -69.5t96 -113t37.5 -172q0 -96 -31.5 -169t-87 -124t-130 -78.5t-162.5 -34.5v-161h-105v161q-94 8 -173 45t-136 95.5t-90 138.5t-37 176zM352 1026q0 -92 55.5 -140t139.5 -71l22 -6v426q-35 -4 -72.5 -14.5t-70.5 -35t-53.5 -63.5 t-20.5 -96zM674 125q111 10 173 78t62 162q0 104 -66.5 156t-168.5 81v-477z" />
<glyph unicode="%" d="M59 1032q0 156 65.5 249t201.5 93q135 0 200.5 -93t65.5 -249q0 -154 -65.5 -249t-200.5 -95t-201 95.5t-66 248.5zM63 0l953 1360h151l-952 -1360h-152zM195 1032q0 -111 32.5 -169t98.5 -58q63 0 97 58.5t34 168.5q0 225 -131 225t-131 -225zM631 319q0 156 65.5 249.5 t200.5 93.5t200.5 -93.5t65.5 -249.5q0 -154 -65.5 -249t-200.5 -95t-200.5 95.5t-65.5 248.5zM766 319q0 -111 32.5 -169t98.5 -58q63 0 97 58.5t34 168.5q0 225 -131 226q-131 0 -131 -226z" />
<glyph unicode="&#x26;" d="M57 377q0 147 83 246.5t206 152.5q-45 63 -79 142t-34 163q0 70 28 126.5t75 96t107.5 60t125.5 20.5q57 0 118 -15t108 -49t77.5 -90t30.5 -138q0 -121 -80 -211t-213 -150l224 -274q14 59 21 128.5t3 149.5h162q4 -115 -12.5 -222t-55.5 -202l252 -311h-229l-121 147 q-66 -80 -159 -126t-216 -46q-104 0 -184 34t-132 90.5t-79 129t-27 148.5zM242 381q0 -59 20.5 -106.5t54 -80t79 -50t96.5 -17.5q80 0 147.5 36t114.5 107l-318 394q-92 -45 -143 -116t-51 -167zM412 1081q0 -49 22.5 -103t81.5 -132q94 41 157.5 100.5t63.5 138.5 q0 39 -14 68t-37.5 46.5t-52.5 25.5t-60 8q-29 0 -58.5 -8t-52 -26.5t-36.5 -47.5t-14 -70z" />
<glyph unicode="'" d="M516 1360h195l-39 -483h-117z" />
<glyph unicode="(" d="M412 514q0 143 24.5 270t63.5 234.5t85 193.5t89 148h143q-94 -154 -160.5 -365t-66.5 -481t66.5 -482t160.5 -366h-143q-43 61 -89 147.5t-85 194t-63.5 234.5t-24.5 272z" />
<glyph unicode=")" d="M412 -334q94 154 160.5 366t66.5 482t-66.5 481t-160.5 365h143q43 -61 89 -147.5t85 -194t63.5 -234.5t24.5 -270q0 -145 -24.5 -272t-63.5 -234.5t-85 -193.5t-89 -148h-143z" />
<glyph unicode="*" d="M299 1118l39 107l215 -82v227h115v-227l215 82l45 -107l-219 -76l131 -184l-88 -67l-142 192l-129 -192l-100 65l133 186z" />
<glyph unicode="+" d="M96 430v164h430v418h174v-418h430v-164h-430v-430h-174v430h-430z" />
<glyph unicode="," d="M500 -264l100 264h-92v219h219v-233l-117 -250h-110z" />
<glyph unicode="-" d="M311 440v164h607v-164h-607z" />
<glyph unicode="." d="M504 0v219h219v-219h-219z" />
<glyph unicode="/" d="M256 0l543 1360h174l-543 -1360h-174z" />
<glyph unicode="0" d="M131 686q0 160 26.5 290t84 220t148.5 139t222 49t222.5 -49t149.5 -139t85 -220t27 -290q0 -162 -27 -293t-85 -224t-149.5 -143.5t-222.5 -50.5t-222 50.5t-148.5 143.5t-84 224t-26.5 293zM307 633l602 241q-23 186 -96.5 273.5t-200.5 87.5q-156 0 -230.5 -132 t-74.5 -417v-53zM317 492q45 -367 295 -367q307 0 308 561v47z" />
<glyph unicode="1" d="M209 0v150h352v909h-352v119q86 2 151.5 9t114.5 26.5t85 54.5t63 92h112v-1210h291v-150h-817z" />
<glyph unicode="2" d="M152 0v150q174 135 308 250.5t225 218t138 196.5t47 184q0 109 -60 172.5t-177 63.5q-53 0 -103.5 -15.5t-88.5 -51t-61.5 -94t-25.5 -144.5h-178q-2 98 31 182t92 144.5t145.5 94t190.5 33.5q90 0 168 -23.5t134 -69.5t88 -113.5t32 -155.5q0 -121 -53.5 -231.5 t-144.5 -218t-211 -212t-251 -210.5h684v-150h-929z" />
<glyph unicode="3" d="M133 406h178q14 -127 87 -204t212 -77q131 0 213 66.5t82 189.5q0 74 -29.5 123t-80 78.5t-119 43t-148.5 13.5h-26v156h20q172 0 260 53t88 174q0 104 -74.5 158.5t-179.5 54.5q-133 0 -203.5 -72.5t-80.5 -189.5h-178q6 92 41.5 168t96 130t143.5 83.5t186 29.5 q84 0 162.5 -18t139 -60t97.5 -107.5t37 -160.5q0 -104 -55.5 -187t-159.5 -126q74 -25 122 -61.5t76.5 -80.5t40 -95.5t11.5 -104.5q0 -102 -41 -179t-109 -128t-155 -76t-179 -25q-115 0 -200.5 36t-144 95.5t-91.5 137.5t-39 162z" />
<glyph unicode="4" d="M86 340v164l649 856h176v-856h232v-164h-232v-340h-174v340h-651zM268 504h469v618z" />
<glyph unicode="5" d="M137 406h178q14 -127 87 -204t212 -77q59 0 111.5 20.5t92.5 61.5t63.5 101.5t23.5 137.5q0 84 -25.5 144.5t-67.5 98.5t-95 56.5t-107 18.5q-49 0 -91 -13.5t-73.5 -34t-54 -47t-33.5 -51.5l-182 9l90 733h764v-150h-616l-49 -397q53 53 127.5 77.5t156.5 24.5 q86 0 166 -30.5t141.5 -90t98.5 -146.5t37 -199q0 -117 -40 -205t-107.5 -148.5t-153.5 -90.5t-179 -30q-115 0 -200.5 36t-144 95.5t-91.5 137.5t-39 162z" />
<glyph unicode="6" d="M135 631q0 145 29 281.5t91 240.5t161.5 167.5t240.5 63.5q96 0 169 -28.5t124 -75.5t81 -108.5t40 -124.5h-188q-16 92 -79 140t-157 48q-80 0 -140.5 -37t-101 -104.5t-64.5 -162.5t-26 -214q45 80 130 134t217 54q92 0 170.5 -33.5t137 -94t91.5 -145.5t33 -188 q0 -96 -34 -181t-96.5 -148.5t-149.5 -101.5t-191 -38q-248 0 -368 169t-120 487zM336 436q0 -141 76.5 -226t208.5 -85q127 0 206.5 85t79.5 226q0 139 -78.5 226.5t-205.5 87.5q-66 0 -118 -24t-90 -64.5t-58.5 -98t-20.5 -127.5z" />
<glyph unicode="7" d="M156 1210v150h968v-150q-133 -102 -240.5 -232t-184 -284.5t-120.5 -329t-51 -364.5h-198q10 186 56 360.5t122 330t178 287.5t225 232h-755z" />
<glyph unicode="8" d="M125 383q0 45 10 94t37 95t69 85t107 68q-49 27 -84 63.5t-56.5 77.5t-31.5 85t-10 85q0 76 32.5 139.5t91 109.5t141.5 72.5t183 26.5t183.5 -26.5t141.5 -72.5t91 -109.5t33 -139.5q0 -41 -10.5 -85t-32 -85t-56 -77.5t-83.5 -63.5q63 -29 106 -68t69.5 -85t37 -95 t10.5 -94q0 -98 -39 -174t-104.5 -128t-155.5 -79t-191 -27q-102 0 -191 27t-154.5 79t-104.5 128t-39 174zM311 383q0 -121 82 -189.5t221 -68.5t221.5 68.5t82.5 189.5t-82 192.5t-222 71.5q-139 0 -221 -71.5t-82 -192.5zM342 1018q0 -104 74.5 -170t197.5 -66t198 65.5 t75 170.5q0 106 -75 160.5t-198 54.5t-197.5 -56.5t-74.5 -158.5z" />
<glyph unicode="9" d="M135 915q0 94 33 180.5t94.5 150t148.5 101t195 37.5q248 0 368 -168.5t120 -486.5q0 -145 -28 -281.5t-89.5 -241t-161 -168t-240.5 -63.5q-96 0 -169.5 29t-126 76t-83 107.5t-40.5 125.5h190q16 -92 78.5 -140t159.5 -48q78 0 138 37t101 104.5t63.5 162.5t26.5 214 q-45 -80 -130 -134t-216 -54q-92 0 -171 33.5t-137 94t-91 145.5t-33 187zM322 924q0 -139 78.5 -226.5t205.5 -87.5q63 0 116.5 22.5t91.5 64.5t58.5 99.5t20.5 127.5q0 141 -77 226t-208 85q-129 0 -207.5 -85t-78.5 -226z" />
<glyph unicode=":" d="M504 0v219h219v-219h-219zM504 805v219h219v-219h-219z" />
<glyph unicode=";" d="M500 -264l100 264h-92v219h219v-233l-117 -250h-110zM508 805v219h219v-219h-219z" />
<glyph unicode="&#x3c;" d="M125 436v148l977 432v-187l-760 -319l760 -313v-185z" />
<glyph unicode="=" d="M137 248v164h955v-164h-955zM137 633v164h955v-164h-955z" />
<glyph unicode="&#x3e;" d="M125 12v185l760 313l-760 319v187l977 -432v-148z" />
<glyph unicode="?" d="M162 969q0 92 35.5 168.5t99 132t148.5 85t188 29.5q80 0 157.5 -19t138 -61t97.5 -105.5t37 -149.5q0 -68 -21.5 -122.5t-56.5 -99.5t-82 -81.5t-98 -67.5q-45 -27 -76 -49.5t-49 -46t-26.5 -52t-8.5 -67.5v-60h-174v66q0 59 13.5 104t42 83t71.5 72t102 71q37 25 69 48 t56.5 51t38 62.5t13.5 81.5q0 90 -69 139.5t-179 49.5q-80 0 -134.5 -24.5t-88 -62.5t-49 -85t-17.5 -90h-178zM451 0v219h219v-219h-219z" />
<glyph unicode="@" d="M51 666q0 154 45 284.5t125 227t187.5 150.5t234.5 54q109 0 205 -35.5t169 -111.5t115 -190.5t42 -272.5q0 -115 -24 -205t-62.5 -151.5t-89 -93t-101.5 -31.5q-59 0 -100 46t-52 132q-35 -82 -91 -127t-136 -45q-45 0 -85 20.5t-70.5 61.5t-49 105.5t-18.5 154.5 q0 82 21.5 162t61.5 142.5t96 100t128 37.5q63 0 108.5 -41t67.5 -106l10 115h107l-45 -414q-2 -25 -4 -62.5t3 -74.5t20.5 -62.5t45.5 -25.5q29 0 54.5 25.5t46 72.5t32 112.5t11.5 145.5q0 119 -31 213t-86 158.5t-133 98.5t-170 34q-104 0 -190.5 -48t-147.5 -131 t-95 -194t-34 -235q0 -117 27.5 -219.5t81 -179.5t128 -121t171.5 -44q70 0 148.5 17.5t141.5 58.5l45 -113q-78 -45 -169 -65.5t-166 -20.5q-119 0 -216.5 52.5t-167 144.5t-107.5 218t-38 276zM424 637q0 -100 33 -159.5t96 -59.5q43 0 78 28.5t57.5 74.5t34.5 106.5 t12 122.5q0 90 -33.5 148t-97.5 58q-41 0 -74.5 -27.5t-57 -72.5t-36 -102.5t-12.5 -116.5z" />
<glyph unicode="A" d="M63 0l455 1360h193l454 -1360h-194l-94 295h-525l-94 -295h-195zM406 465h417l-209 653z" />
<glyph unicode="B" d="M190 0v1360h406q86 0 168 -14.5t145.5 -52.5t102.5 -103.5t39 -167.5q0 -98 -36 -178t-102 -121q88 -41 138.5 -117t50.5 -205q0 -111 -38 -186.5t-101.5 -123.5t-147.5 -69.5t-176 -21.5h-449zM371 172h282q131 0 196.5 55.5t65.5 171.5q0 123 -66.5 171t-207.5 48h-270 v-446zM371 780h264q106 0 169.5 47t63.5 168q0 106 -64.5 149.5t-168.5 43.5h-264v-408z" />
<glyph unicode="C" d="M135 682q0 160 33 290t97.5 222t159.5 141t218 49q180 0 304 -121.5t159 -332.5h-184q-8 59 -29 111.5t-55.5 91t-85 61.5t-115.5 23q-150 0 -232.5 -134.5t-82.5 -400.5q0 -258 79.5 -398.5t239.5 -140.5q133 0 200.5 80t88.5 205h180q-35 -221 -164 -337t-315 -116 q-127 0 -220.5 51.5t-154.5 144.5t-91 223t-30 288z" />
<glyph unicode="D" d="M180 0v1360h236q147 0 276 -32t225.5 -110.5t151.5 -209.5t55 -328t-55 -328t-151.5 -210t-225.5 -110.5t-276 -31.5h-236zM360 172h50q96 0 191 13.5t170 64.5t122 152.5t47 277.5t-47 277.5t-122 152.5t-170 64.5t-191 13.5h-50v-1016z" />
<glyph unicode="E" d="M215 0v1360h821v-172h-641v-402h602v-172h-602v-442h641v-172h-821z" />
<glyph unicode="F" d="M248 0v1360h848v-172h-668v-402h631v-172h-631v-614h-180z" />
<glyph unicode="G" d="M98 682q0 160 34 290t99.5 222t165 141t230.5 49q195 0 317.5 -115.5t157.5 -326.5h-187q-8 59 -27.5 109.5t-55 87.5t-88 57.5t-126.5 20.5q-166 0 -249.5 -134.5t-83.5 -400.5q0 -258 79.5 -398.5t253.5 -140.5q61 0 120 15.5t104 55.5t71.5 109.5t26.5 176.5v32h-317 v173h483v-705h-137l-8 174q-61 -106 -143.5 -152.5t-207.5 -46.5q-133 0 -230 51.5t-159.5 144.5t-92.5 223t-30 288z" />
<glyph unicode="H" d="M168 0v1360h180v-574h533v574h180v-1360h-180v614h-533v-614h-180z" />
<glyph unicode="I" d="M176 0v172h348v1016h-348v172h877v-172h-348v-1016h348v-172h-877z" />
<glyph unicode="J" d="M176 426h180q0 -285 232 -285q49 0 90 11.5t70.5 44t45 91t15.5 152.5v748h-533v172h713v-922q0 -227 -98 -345t-303 -118q-92 0 -169 31t-130 89.5t-83 142.5t-30 188z" />
<glyph unicode="K" d="M203 0v1360h184v-641l490 641h215l-414 -524l467 -836h-209l-379 684l-170 -215v-469h-184z" />
<glyph unicode="L" d="M238 0v1360h180v-1188h678v-172h-858z" />
<glyph unicode="M" d="M141 0v1360h283l190 -686l191 686h282v-1360h-180v1182l-200 -707h-185l-200 707v-1182h-181z" />
<glyph unicode="N" d="M168 0v1360h270l443 -1155v1155h180v-1360h-270l-443 1157v-1157h-180z" />
<glyph unicode="O" d="M98 680q0 156 32 286t96.5 223t161.5 144t226 51t225.5 -51t161 -144t97 -223t32.5 -286t-32.5 -286t-97 -223t-161 -144.5t-225.5 -51.5t-226 51.5t-161.5 144.5t-96.5 223t-32 286zM285 680q0 -262 78.5 -399.5t250.5 -137.5t251 137.5t79 399.5t-79 399.5t-251 137.5 t-250.5 -137.5t-78.5 -399.5z" />
<glyph unicode="P" d="M231 0v1360h338q113 0 211.5 -17.5t170 -64.5t112.5 -128t41 -210t-41 -210t-112.5 -128t-170 -64.5t-211.5 -17.5h-157v-520h-181zM412 692h180q70 0 129 7.5t103 33t69 74.5t25 133t-25 133t-69 75t-103 33t-129 7h-180v-496z" />
<glyph unicode="Q" d="M98 680q0 156 32 286t96.5 223t161.5 144t226 51t225.5 -51t161 -144t97 -223t32.5 -286t-31.5 -285t-94.5 -221l131 -147l-107 -119l-135 151q-57 -41 -126 -62.5t-153 -21.5q-129 0 -226 51.5t-161.5 144.5t-96.5 223t-32 286zM285 680q0 -262 78.5 -399.5 t250.5 -137.5q98 0 164 45l-131 146l107 119l127 -142q33 66 48 159t15 210q0 262 -79 399.5t-251 137.5t-250.5 -137.5t-78.5 -399.5z" />
<glyph unicode="R" d="M205 0v1360h338q113 0 210 -14.5t169.5 -56.5t113.5 -118.5t41 -199.5q0 -160 -66.5 -245t-181.5 -122l291 -604h-205l-270 573q-25 -4 -50.5 -4h-51.5h-156v-569h-182zM387 741h178q68 0 127.5 5.5t103.5 28t69.5 67.5t25.5 125t-25.5 124t-69.5 65.5t-103.5 26.5 t-127.5 5h-178v-447z" />
<glyph unicode="S" d="M133 424h180q14 -139 102.5 -210t223.5 -71q51 0 101.5 12.5t89 40t62 69.5t23.5 102q0 53 -19 92t-53 66.5t-82 46t-104 30.5l-149 35q-68 14 -131.5 44t-111.5 76t-76.5 108.5t-28.5 144.5q0 88 35.5 158.5t97 117.5t144.5 72.5t175 25.5q80 0 158 -21.5t140.5 -67.5 t105.5 -119.5t55 -176.5h-180q-8 61 -37 103.5t-69 68t-88 36t-95 10.5t-93 -11.5t-82 -36t-58.5 -63.5t-22.5 -92q0 -90 57.5 -136.5t141.5 -64.5l137 -31q84 -18 160 -46.5t133 -75t91 -114t34 -165.5q0 -96 -36 -172t-98.5 -128t-147.5 -79t-185 -27q-104 0 -193.5 32 t-156 90.5t-105.5 141.5t-45 185z" />
<glyph unicode="T" d="M109 1188v172h1011v-172h-415v-1188h-181v1188h-415z" />
<glyph unicode="U" d="M152 561v799h180v-819q0 -102 11 -177t42 -124.5t85 -73t142 -23.5t144.5 27t87 80t42 131t11.5 180v799h180v-782q0 -152 -21.5 -264.5t-75.5 -188.5t-143 -113t-225 -37q-129 0 -217 31t-142 100.5t-77.5 181t-23.5 273.5z" />
<glyph unicode="V" d="M84 1360h195l335 -1118l336 1118h195l-434 -1360h-193z" />
<glyph unicode="W" d="M82 1360h180l103 -1098l151 696h197l151 -696l103 1098h180l-137 -1360h-236l-160 719l-159 -719h-236z" />
<glyph unicode="X" d="M61 0l451 717l-399 643h209l294 -477l302 477h198l-399 -637l448 -723h-207l-346 557l-350 -557h-201z" />
<glyph unicode="Y" d="M49 1360h211l356 -655l355 655h211l-475 -842v-518h-183v518z" />
<glyph unicode="Z" d="M143 0v172l711 1016h-653v172h858v-172l-709 -1016h717v-172h-924z" />
<glyph unicode="[" d="M399 -334v1694h428v-148h-260v-1398h260v-148h-428z" />
<glyph unicode="\" d="M256 1360h174l543 -1360h-174z" />
<glyph unicode="]" d="M399 -186h260v1398h-260v148h428v-1694h-428v148z" />
<glyph unicode="^" d="M154 623l383 737h147l391 -737h-186l-279 520l-272 -520h-184z" />
<glyph unicode="_" d="M240 -2h749v-164h-749v164z" />
<glyph unicode="`" d="M418 1360h221l172 -221h-145z" />
<glyph unicode="a" d="M180 297q0 94 48 156.5t136.5 100.5t211 55.5t274.5 25.5v53q0 61 -19.5 102t-51 65t-74.5 34t-91 10q-113 0 -171 -49t-64 -133h-180q4 78 39.5 138t93 102t132.5 64.5t154 22.5q203 0 304.5 -90t101.5 -292v-662h-154l-6 158q-45 -78 -126 -130.5t-210 -52.5 q-84 0 -148.5 26t-108.5 71t-67.5 102t-23.5 123zM367 291q0 -80 53 -128t139 -48q51 0 104.5 17.5t97.5 55t71.5 99t27.5 147.5v78q-66 -10 -125 -17.5t-110 -17.5q-123 -23 -190.5 -63.5t-67.5 -122.5z" />
<glyph unicode="b" d="M209 0v1360h174v-490q43 74 114.5 122t188.5 48q88 0 164 -35.5t131 -103t87 -167t32 -226.5t-32 -226.5t-87 -167t-131 -103.5t-164 -36q-117 0 -188.5 48.5t-114.5 121.5l-2 -145h-172zM375 508q0 -102 22.5 -175t60.5 -120t87 -69.5t104 -22.5q133 0 198.5 101.5 t65.5 285.5t-65.5 285.5t-198.5 101.5q-55 0 -104 -22.5t-87 -69.5t-60.5 -121t-22.5 -174z" />
<glyph unicode="c" d="M162 510q0 115 32.5 212t93 168t147.5 110.5t198 39.5q88 0 161.5 -29.5t127 -78.5t85 -113.5t37.5 -134.5h-178q-16 94 -80.5 153.5t-160.5 59.5q-57 0 -107.5 -24.5t-88.5 -72.5t-59.5 -120t-21.5 -168q0 -98 21.5 -172t59.5 -123t88 -73.5t108 -24.5q51 0 94 17.5 t74.5 46t52 67.5t28.5 80h181q-10 -78 -48 -142.5t-96.5 -111.5t-133.5 -74t-161 -27q-106 0 -191 40t-143.5 111t-89 169t-30.5 215z" />
<glyph unicode="d" d="M141 508q0 127 32 226.5t87 167t131 103t164 35.5q117 0 188.5 -48t114.5 -122v490h174v-1360h-172l-2 145q-43 -74 -114.5 -122t-188.5 -48q-88 0 -164 36t-131 103.5t-87 167t-32 226.5zM328 508q0 -184 65.5 -285.5t198.5 -101.5q55 0 104 22.5t87 70.5t60.5 121 t22.5 173t-22.5 174t-60.5 121t-87 69.5t-104 22.5q-133 0 -198.5 -101.5t-65.5 -285.5z" />
<glyph unicode="e" d="M156 508q0 123 34.5 222t96 169t146.5 106.5t188 36.5q113 0 199.5 -39.5t145.5 -115.5q58 -75 86 -183q25 -94 25 -212v-33l-737 6q0 -80 19.5 -143.5t56.5 -108.5t88 -69.5t112 -24.5q115 0 175.5 50t89.5 138h180q-16 -74 -53 -134t-93.5 -104t-130 -69t-163.5 -25 q-117 0 -204 41t-145.5 112t-87 168t-28.5 212zM342 604h549q0 61 -16.5 115.5t-51.5 94.5t-84.5 63.5t-117.5 23.5q-123 0 -198 -73.5t-81 -223.5z" />
<glyph unicode="f" d="M147 874v150h273v53q0 80 11 134.5t42 87t83 47t136 14.5h361v-150h-357q-33 0 -52 -6t-30.5 -20.5t-15.5 -41t-4 -65.5v-53h459v-150h-459v-874h-174v874h-273z" />
<glyph unicode="g" d="M133 528q0 127 32 222.5t87 160t131 97t164 32.5q117 0 188.5 -48t114.5 -122l2 154h172v-897q0 -78 -5 -135.5t-15.5 -98t-25.5 -70.5t-36 -54q-53 -66 -150.5 -101t-205.5 -35q-168 0 -278.5 78t-133.5 230h184q8 -35 24.5 -64t43.5 -49.5t65.5 -31.5t96.5 -11 q66 0 121 19.5t88 56.5q27 31 40 77t13 150v98q-43 -74 -114.5 -122t-188.5 -48q-88 0 -164 33t-131 97.5t-87 159.5t-32 222zM319 528q1 -366 265 -366q55 0 104 19.5t87 63.5t60.5 113.5t22.5 169.5t-22.5 171t-60.5 114t-87 62.5t-104 19.5q-264 0 -265 -367z" />
<glyph unicode="h" d="M225 0v1360h174v-481q41 68 111.5 114.5t189.5 46.5q92 0 153.5 -28.5t98.5 -80.5t52.5 -124t15.5 -156v-651h-174v590q0 61 -5 116.5t-24.5 96.5t-60.5 64.5t-113 23.5q-119 0 -181.5 -85t-62.5 -251v-555h-174z" />
<glyph unicode="i" d="M256 0v150h291v724h-291v150h465v-874h291v-150h-756zM547 1151v209h174v-209h-174z" />
<glyph unicode="j" d="M262 -182h238q63 0 83.5 23.5t20.5 103.5v929h-256v150h430v-1075q0 -80 -11 -134.5t-39 -87t-75 -47t-116 -14.5h-275v152zM604 1151v209h174v-209h-174z" />
<glyph unicode="k" d="M233 0v1360h175v-803l452 467h223l-399 -397l440 -627h-200l-359 510l-157 -156v-354h-175z" />
<glyph unicode="l" d="M244 0v150h291v1060h-291v150h465v-1210h290v-150h-755z" />
<glyph unicode="m" d="M147 0v1024h170v-109q25 51 69 88t118 37q70 0 107 -38t53 -91q33 59 83 94t119 35q39 0 78 -12t67.5 -46t47 -97.5t18.5 -163.5v-721h-174v633q0 55 -1 103t-9 83t-26.5 55.5t-51.5 20.5q-66 0 -90.5 -78t-24.5 -237v-580h-174v633q0 55 -1 103t-9 83t-25.5 55.5 t-50.5 20.5q-68 0 -92 -79t-24 -238v-578h-177z" />
<glyph unicode="n" d="M219 0v1024h174v-145q39 66 108.5 113.5t192.5 47.5q92 0 153.5 -28.5t98.5 -80.5t52.5 -124t15.5 -156v-651h-174v590q0 61 -5.5 116.5t-24.5 96.5t-60 64.5t-113 23.5q-119 0 -181.5 -85t-62.5 -251v-555h-174z" />
<glyph unicode="o" d="M141 506q0 139 41 239.5t107.5 166t151.5 97t173 31.5t173 -31.5t152 -97t107.5 -166t40.5 -239.5t-40.5 -239.5t-107.5 -165t-152 -95.5t-173 -31t-173 31t-151.5 95.5t-107.5 165t-41 239.5zM326 506q0 -102 23.5 -176t62.5 -121t91 -69.5t111 -22.5q57 0 110.5 22.5 t92.5 69.5t62.5 120.5t23.5 176.5q0 102 -23.5 176t-62.5 122t-92 71.5t-111 23.5q-59 0 -111 -23.5t-91 -71.5t-62.5 -122t-23.5 -176z" />
<glyph unicode="p" d="M190 -334v1358h175v-154q43 74 114.5 122t188.5 48q88 0 163.5 -35.5t131 -103t87 -167t31.5 -226.5t-31.5 -226.5t-87 -167t-131 -103.5t-163.5 -36q-117 0 -188.5 48.5t-114.5 121.5v-479h-175zM356 508q0 -102 22.5 -175t60.5 -120t87 -69.5t105 -22.5 q133 0 198.5 101.5t65.5 285.5t-65.5 285.5t-198.5 101.5q-55 0 -104.5 -22.5t-87.5 -69.5t-60.5 -121t-22.5 -174z" />
<glyph unicode="q" d="M168 508q0 127 31.5 226.5t87 167t131.5 103t164 35.5q117 0 188.5 -48t114.5 -122v154h174v-1358h-174v479q-43 -74 -115 -122t-188 -48q-88 0 -164 36t-131.5 104.5t-87 167t-31.5 225.5zM354 508q0 -184 65.5 -285.5t198.5 -101.5q55 0 104.5 22.5t87.5 69.5t60.5 120 t22.5 175q0 100 -22.5 174t-60.5 121t-87 69.5t-105 22.5q-133 0 -198.5 -101.5t-65.5 -285.5z" />
<glyph unicode="r" d="M164 874v150h463v-182q37 86 107.5 134t166.5 48h174v-160h-172q-147 0 -209.5 -92t-62.5 -262v-360h350v-150h-815v150h291v724h-293z" />
<glyph unicode="s" d="M201 307h184q16 -90 73.5 -139t164.5 -49q41 0 81.5 8t73.5 26.5t53.5 49t20.5 76.5q0 72 -58.5 109.5t-156.5 55.5l-127 25q-61 12 -113.5 33.5t-92.5 55.5t-62.5 83t-22.5 117q0 74 36 128t93.5 88t125 50t132.5 16q164 0 269.5 -78.5t134.5 -218.5h-183 q-16 86 -78.5 120t-150.5 34q-39 0 -76 -8t-65.5 -23.5t-46 -41t-17.5 -58.5q0 -59 39 -90t115 -47l115 -23q66 -12 131 -33.5t117.5 -56.5t85 -88t32.5 -129q0 -82 -32.5 -142.5t-88 -100.5t-130.5 -60.5t-159 -20.5q-100 0 -174.5 29t-127 76t-81 106.5t-34.5 120.5z" />
<glyph unicode="t" d="M84 874v150h293v256h174v-256h420v-150h-420v-591q0 -41 2 -67t12 -40t30.5 -20t57.5 -6h318v-150h-355q-70 0 -115.5 10t-73.5 38t-39 78t-11 130v618h-293z" />
<glyph unicode="u" d="M219 365v659h174v-598q0 -61 4 -116.5t24.5 -96.5t60.5 -64.5t112 -23.5q119 0 181.5 85t62.5 251v563h174v-1024h-174v131q-41 -66 -110 -111t-191 -45q-92 0 -153.5 29t-98.5 81t-51.5 124t-14.5 156z" />
<glyph unicode="v" d="M160 1024h196l265 -784l262 784h182l-369 -1024h-168z" />
<glyph unicode="w" d="M98 1024h178l105 -758l151 553h164l152 -553l104 758h178l-172 -1024h-176l-168 618l-168 -618h-176z" />
<glyph unicode="x" d="M160 0l356 526l-336 498h197l237 -352l240 352h195l-336 -498l356 -526h-197l-258 381l-256 -381h-198z" />
<glyph unicode="y" d="M145 -182h187q39 0 66.5 4t49 20.5t39 48t37.5 86.5l8 23l-382 1024h192l279 -791l272 791h180l-379 -1067q-27 -76 -53.5 -131t-64 -90t-92 -52.5t-136.5 -17.5h-203v152z" />
<glyph unicode="z" d="M199 0v150l622 724h-585v150h798v-150l-620 -724h630v-150h-845z" />
<glyph unicode="{" d="M358 444v140q47 0 76 14t44.5 40t20.5 61.5t5 80.5v297q0 80 10 134.5t41 87t85 47t140 14.5h90v-148h-86q-68 0 -87 -26.5t-19 -106.5v-303q0 -66 -11.5 -110.5t-32 -74.5t-50 -47.5t-66.5 -27.5v-4q37 -10 66.5 -27.5t50 -47t32 -75t11.5 -110.5v-305 q0 -80 19.5 -106.5t86.5 -26.5h86v-148h-90q-86 0 -140 14.5t-85 47t-41 87t-10 134.5v299q0 45 -5 81t-20.5 61.5t-44 39.5t-76.5 14z" />
<glyph unicode="|" d="M535 -170v1530h157v-1530h-157z" />
<glyph unicode="}" d="M358 -186h86q68 0 87.5 26.5t19.5 106.5v305q0 66 11 111t31.5 74.5t50.5 47t67 27.5v4q-37 10 -67 27.5t-50.5 47.5t-31.5 75t-11 110v303q0 80 -19.5 106.5t-87.5 26.5h-86v148h91q86 0 140 -14.5t85 -47t41 -87t10 -134.5v-297q0 -45 5 -80.5t20.5 -61.5t44 -40 t75.5 -14v-140q-47 0 -75.5 -14t-44 -39.5t-20.5 -61.5t-5 -81v-299q0 -80 -10 -134.5t-41 -87t-85 -47t-140 -14.5h-91v148z" />
<glyph unicode="~" d="M106 393q8 125 86 204t207 79q68 0 127.5 -20.5t112.5 -45t100 -45t90 -20.5q53 0 90 33.5t42 97.5h161q-8 -125 -86 -204t-207 -79q-59 0 -115.5 20.5t-109.5 45t-104 45t-101 20.5q-53 0 -90 -33.5t-41 -97.5h-162z" />
<glyph unicode="&#xa0;" />
<glyph unicode="&#xa1;" d="M504 805v219h219v-219h-219zM528 63l37 560h109l37 -560v-397h-183v397z" />
<glyph unicode="&#xa2;" d="M162 510q0 106 28.5 199.5t83 163t133 112.5t177.5 53v158h88v-158q80 -6 146.5 -37.5t114.5 -80t76.5 -109.5t34.5 -127h-178q-16 82 -66 138.5t-128 70.5v-770q86 16 136 74.5t66 132.5h181q-10 -72 -43 -132.5t-83 -106.5t-115.5 -75.5t-141.5 -38.5v-161h-88v159 q-98 6 -177 49.5t-133.5 114t-83 164.5t-28.5 207zM348 512q0 -178 67.5 -275.5t168.5 -113.5v770q-100 -16 -168 -110.5t-68 -270.5z" />
<glyph unicode="&#xa3;" d="M115 106q31 12 77 41t88 74t71.5 104.5t29.5 135.5q0 47 -10.5 88t-26.5 82h-227v123h168q-35 66 -62.5 133t-27.5 149q0 94 40.5 161t105.5 108t146.5 60t163.5 19q111 0 197 -32.5t145.5 -91t90 -140.5t28.5 -182h-178q-2 86 -25.5 142.5t-62.5 90t-91.5 48 t-111.5 14.5q-43 0 -90 -9.5t-86 -33t-63.5 -63.5t-24.5 -99q0 -72 30.5 -139.5t67.5 -134.5h373v-123h-315q29 -70 28 -142q0 -55 -17.5 -102t-45 -85t-64.5 -67.5t-74 -52.5l3 -4q33 12 62.5 18.5t66.5 6.5q41 0 79.5 -11.5t78.5 -25.5t84 -25.5t95 -11.5q61 0 119 14.5 t111 36.5l51 -149q-41 -23 -114.5 -43.5t-149.5 -20.5q-55 0 -102.5 12.5t-94.5 25.5t-96 25.5t-104 12.5q-61 0 -136 -19.5t-143 -56.5z" />
<glyph unicode="&#xa4;" d="M111 262l133 133q-41 57 -63.5 124t-22.5 140q0 74 21.5 141.5t62.5 123.5l-131 133l94 92l129 -129q57 45 126.5 69.5t147.5 24.5q80 0 150.5 -25.5t130.5 -70.5l133 131l94 -92l-135 -135q39 -55 60.5 -122t21.5 -141q0 -72 -21.5 -138t-62.5 -122l137 -137l-94 -92 l-135 133q-57 -45 -129 -69.5t-150 -24.5t-146.5 24.5t-125.5 67.5l-131 -131zM315 659q0 -66 21.5 -121t60.5 -97t92.5 -65.5t116.5 -23.5q68 0 123 23.5t95 65.5t62.5 97.5t22.5 120.5q0 66 -22.5 123.5t-62.5 99.5t-95 66.5t-123 24.5q-63 0 -116.5 -24.5t-92.5 -66.5 t-60.5 -99.5t-21.5 -123.5z" />
<glyph unicode="&#xa5;" d="M49 1360h211l356 -655l355 655h211l-428 -760h264v-123h-311v-143h311v-123h-311v-211h-183v211h-317v123h317v143h-317v123h270z" />
<glyph unicode="&#xa6;" d="M535 -170v582h157v-582h-157zM535 778v582h157v-582h-157z" />
<glyph unicode="&#xa7;" d="M131 600q0 96 66.5 166t160.5 104q-53 41 -93 101.5t-40 144.5q0 68 32 118t84 84t118.5 50t136.5 16q170 0 273.5 -79.5t125.5 -233.5h-178q-16 90 -80.5 129t-148.5 39q-86 0 -136.5 -30.5t-50.5 -84.5q0 -51 34 -89t120 -85l262 -141q61 -33 112.5 -66.5t88.5 -72.5 t57.5 -85t20.5 -106q0 -100 -61.5 -177t-160.5 -124q53 -45 85 -100t32 -129q0 -78 -30.5 -136.5t-84 -98.5t-123 -60.5t-149.5 -20.5q-180 0 -289.5 93.5t-124.5 253.5h179q14 -98 69.5 -149.5t169.5 -51.5q92 0 149.5 37t57.5 106q0 29 -8 54.5t-28.5 51t-56.5 52 t-91 57.5l-246 131q-113 59 -183.5 139t-70.5 193zM303 610q0 -57 34 -100t116 -88l260 -139q10 -6 20 -11.5t21 -11.5q66 31 118 78t52 113t-47.5 114.5t-149.5 102.5l-227 123q-37 -10 -72 -26.5t-62.5 -39.5t-45 -51.5t-17.5 -63.5z" />
<glyph unicode="&#xa8;" d="M309 1141v188h174v-188h-174zM745 1141v188h175v-188h-175z" />
<glyph unicode="&#xa9;" d="M84 848q0 119 42 217t113.5 169t169 109.5t207.5 38.5q109 0 205.5 -38.5t169 -109.5t114.5 -169t42 -217t-42 -216t-114.5 -167t-169 -109t-205.5 -39q-111 0 -208 39t-168.5 109t-113.5 167t-42 216zM178 848q0 -100 34 -182t92 -140.5t139 -90.5t173 -32q94 0 173 32 t137.5 90.5t91.5 140.5t33 182t-33 182t-91.5 141.5t-137 92t-173.5 32.5q-92 0 -173 -32.5t-139 -92t-92 -141.5t-34 -182zM342 862q0 139 73.5 217t202.5 78q104 0 165 -52t81 -130l-106 -29q-14 59 -53 89t-91 30q-66 0 -109.5 -49t-43.5 -154q0 -104 44 -156.5 t109 -52.5q47 0 89 24.5t59 84.5l108 -29q-25 -68 -87 -120t-169 -52q-133 0 -202.5 80t-69.5 221z" />
<glyph unicode="&#xaa;" d="M352 969q0 41 15.5 71.5t42.5 51.5q39 29 91 42t122 19l104 12v21q0 55 -29.5 75.5t-79.5 20.5q-53 0 -82.5 -22.5t-33.5 -67.5l-131 4q8 84 72.5 136t181.5 52q127 0 185 -52t56 -167q-2 -39 -3 -90t-1 -82q0 -96 12 -196h-129l-4 65q-29 -41 -71.5 -60.5t-110.5 -19.5 q-49 0 -88 15.5t-64.5 42t-40 59.5t-14.5 70zM494 969q0 -35 25.5 -57.5t70.5 -22.5q55 0 98 33.5t43 109.5v35l-104 -12q-72 -8 -102.5 -28.5t-30.5 -57.5z" />
<glyph unicode="&#xab;" d="M135 520l303 434h187l-287 -434l287 -436h-187zM563 520l303 434h185l-287 -434l287 -436h-185z" />
<glyph unicode="&#xac;" d="M90 655v164h993v-633h-174v469h-819z" />
<glyph unicode="&#xad;" d="M311 440v164h607v-164h-607z" />
<glyph unicode="&#xae;" d="M84 848q0 119 42 217t113.5 169t169 109.5t207.5 38.5q109 0 205.5 -38.5t169 -109.5t114.5 -169t42 -217t-42 -216t-114.5 -167t-169 -109t-205.5 -39q-111 0 -208 39t-168.5 109t-113.5 167t-42 216zM178 848q0 -100 34 -182t92 -140.5t139 -90.5t173 -32q94 0 173 32 t137.5 90.5t91.5 140.5t33 182t-33 182t-91.5 141.5t-137 92t-173.5 32.5q-92 0 -173 -32.5t-139 -92t-92 -141.5t-34 -182zM399 580v575h176q63 0 114.5 -7t86.5 -26.5t53.5 -54.5t18.5 -90q0 -47 -24.5 -88t-78.5 -64l132 -245h-132l-116 219h-27h-84v-219h-119zM518 891 h84q68 0 97.5 21.5t29.5 62.5q0 53 -37 69.5t-96 16.5h-78v-170z" />
<glyph unicode="&#xaf;" d="M328 1167v144h571v-144h-571z" />
<glyph unicode="&#xb0;" d="M334 1104q0 57 21.5 108.5t59.5 90t89 60t108 21.5t108.5 -21.5t90.5 -60t60.5 -90t21.5 -108.5t-21.5 -108.5t-60.5 -89.5t-90 -59.5t-109 -21.5q-57 0 -108 21.5t-89 59.5t-59.5 89.5t-21.5 108.5zM473 1104q0 -61 39 -105.5t100 -44.5q63 0 103.5 44t40.5 106 q0 63 -40 107t-104 44q-61 0 -100 -44t-39 -107z" />
<glyph unicode="&#xb1;" d="M117 0v164h993v-164h-993zM117 553v164h409v295h174v-295h410v-164h-410v-297h-174v297h-409z" />
<glyph unicode="&#xb4;" d="M418 1139l172 221h221l-248 -221h-145z" />
<glyph unicode="&#xb5;" d="M193 -334q6 29 10 55.5t6 58.5t3 71.5t1 95.5v1077h174v-602q0 -166 54.5 -230.5t166.5 -64.5q119 0 185.5 84t66.5 244v569h174v-1024h-174v141q-41 -72 -104.5 -119t-141.5 -47q-86 0 -140 34t-87 81v-127q0 -61 -1 -104t-4 -77t-7 -60.5t-10 -55.5h-172z" />
<glyph unicode="&#xb6;" d="M121 1001q0 166 113.5 262.5t345.5 96.5h395v-1530h-144v1397h-231v-1397h-143v836q-63 6 -124 29.5t-108 64.5t-75.5 101.5t-28.5 139.5z" />
<glyph unicode="&#xb7;" d="M504 412v219h219v-219h-219z" />
<glyph unicode="&#xb8;" d="M422 -336l31 78q53 -27 110 -27q41 0 78 12.5t37 47.5q0 29 -23.5 43t-58.5 14q-16 0 -36.5 -3t-37.5 -13l-57 32l98 158h101l-62 -98q31 6 57 6q70 0 108 -35t38 -94q0 -37 -18.5 -66.5t-48 -49t-66.5 -30t-74 -10.5q-39 0 -84 6.5t-92 28.5z" />
<glyph unicode="&#xba;" d="M332 1083q0 78 23.5 134.5t62.5 93.5t90 55t106 18t106.5 -18t90.5 -55t62.5 -93.5t23.5 -134.5t-23.5 -134t-62.5 -93t-90 -54.5t-107 -17.5q-55 0 -106 17.5t-90 54.5t-62.5 93t-23.5 134zM473 1083q0 -92 38 -141t103 -49q63 0 102.5 49t39.5 141q0 94 -39 142.5 t-103 48.5q-66 0 -103.5 -48.5t-37.5 -142.5z" />
<glyph unicode="&#xbb;" d="M176 84l287 436l-287 434h184l304 -434l-304 -436h-184zM602 84l287 436l-287 434h186l304 -434l-304 -436h-186z" />
<glyph unicode="&#xbf;" d="M145 -35q0 68 22.5 122t58.5 99t82 82t95 68q43 29 74 51.5t50.5 46t27.5 51t8 66.5v59h176v-65q0 -59 -14 -104.5t-44 -83.5t-74 -71.5t-103 -70.5q-37 -25 -69 -48.5t-56.5 -51t-37.5 -62.5t-13 -82q0 -90 70.5 -139t181.5 -49q80 0 134 24.5t88 62.5t49 85t17 90 l174 -6q0 -92 -35.5 -168t-97 -130t-148 -83t-186.5 -29q-80 0 -157.5 19.5t-138 61.5t-97.5 105.5t-37 149.5zM539 805v219h219v-219h-219z" />
<glyph unicode="&#xc0;" d="M63 0l455 1360h193l454 -1360h-194l-94 295h-525l-94 -295h-195zM244 1645h245l209 -215h-172zM406 465h417l-209 653z" />
<glyph unicode="&#xc1;" d="M63 0l455 1360h193l454 -1360h-194l-94 295h-525l-94 -295h-195zM406 465h417l-209 653zM489 1430l209 215h246l-282 -215h-173z" />
<glyph unicode="&#xc2;" d="M63 0l455 1360h193l454 -1360h-194l-94 295h-525l-94 -295h-195zM281 1430l256 215h159l250 -215h-203l-129 106l-131 -106h-202zM406 465h417l-209 653z" />
<glyph unicode="&#xc3;" d="M63 0l455 1360h193l454 -1360h-194l-94 295h-525l-94 -295h-195zM264 1434q18 111 77.5 162t141.5 51q43 0 77 -14.5t62.5 -31t56 -31t60.5 -14.5q78 0 90 86h136q-20 -119 -83 -167t-139 -48q-43 0 -77.5 14.5t-64.5 31t-57.5 31t-58.5 14.5q-76 0 -86 -84h-135z M406 465h417l-209 653z" />
<glyph unicode="&#xc4;" d="M63 0l455 1360h193l454 -1360h-194l-94 295h-525l-94 -295h-195zM309 1444v188h174v-188h-174zM406 465h417l-209 653zM745 1444v188h175v-188h-175z" />
<glyph unicode="&#xc5;" d="M63 0l455 1360h193l454 -1360h-194l-94 295h-525l-94 -295h-195zM406 465h417l-209 653zM442 1573q0 72 50 117t122 45t122 -45t50 -117t-50 -117t-122 -45t-122 45t-50 117zM532 1573q0 -35 24.5 -57.5t57.5 -22.5t57.5 22.5t24.5 57.5t-24.5 58.5t-57.5 23.5 t-57.5 -23.5t-24.5 -58.5z" />
<glyph unicode="&#xc6;" d="M27 0l553 1360h575v-172h-395v-402h356v-172h-356v-442h395v-172h-575v295h-246l-113 -295h-194zM399 465h181v475z" />
<glyph unicode="&#xc7;" d="M135 682q0 160 33 290t97.5 222t159.5 141t218 49q180 0 304 -121.5t159 -332.5h-184q-8 59 -29 111.5t-55.5 91t-85 61.5t-115.5 23q-150 0 -232.5 -134.5t-82.5 -400.5q0 -258 79.5 -398.5t239.5 -140.5q133 0 200.5 80t88.5 205h180q-35 -211 -152.5 -325.5 t-291.5 -125.5l-43 -69q31 6 57 6q70 0 107.5 -35t37.5 -94q0 -37 -18.5 -66.5t-48 -49t-66.5 -30t-74 -10.5q-39 0 -84 6.5t-92 28.5l31 78q53 -27 111 -27q41 0 77.5 12.5t36.5 47.5q0 29 -23.5 43t-58.5 14q-16 0 -36.5 -3t-36.5 -13l-58 32l82 132q-111 12 -191.5 68 t-135 148.5t-80 215.5t-25.5 270z" />
<glyph unicode="&#xc8;" d="M215 0v1360h821v-172h-641v-402h602v-172h-602v-442h641v-172h-821zM317 1645h246l209 -215h-172z" />
<glyph unicode="&#xc9;" d="M215 0v1360h821v-172h-641v-402h602v-172h-602v-442h641v-172h-821zM498 1430l209 215h245l-282 -215h-172z" />
<glyph unicode="&#xca;" d="M215 0v1360h821v-172h-641v-402h602v-172h-602v-442h641v-172h-821zM301 1430l256 215h160l250 -215h-203l-129 106l-131 -106h-203z" />
<glyph unicode="&#xcb;" d="M215 0v1360h821v-172h-641v-402h602v-172h-602v-442h641v-172h-821zM309 1444v188h174v-188h-174zM745 1444v188h175v-188h-175z" />
<glyph unicode="&#xcc;" d="M176 0v172h348v1016h-348v172h877v-172h-348v-1016h348v-172h-877zM305 1645h246l209 -215h-172z" />
<glyph unicode="&#xcd;" d="M176 0v172h348v1016h-348v172h877v-172h-348v-1016h348v-172h-877zM489 1430l209 215h246l-282 -215h-173z" />
<glyph unicode="&#xce;" d="M176 0v172h348v1016h-348v172h877v-172h-348v-1016h348v-172h-877zM281 1430l256 215h159l250 -215h-203l-129 106l-131 -106h-202z" />
<glyph unicode="&#xcf;" d="M176 0v172h348v1016h-348v172h877v-172h-348v-1016h348v-172h-877zM309 1444v188h174v-188h-174zM745 1444v188h175v-188h-175z" />
<glyph unicode="&#xd0;" d="M61 614v172h119v574h236q147 0 276 -32t225.5 -110.5t151.5 -209.5t55 -328t-55 -328t-151.5 -210t-225.5 -110.5t-276 -31.5h-236v614h-119zM360 172h50q96 0 191 13.5t170 64.5t122 152.5t47 277.5t-47 277.5t-122 152.5t-170 64.5t-191 13.5h-50v-402h320v-172h-320 v-442z" />
<glyph unicode="&#xd1;" d="M168 0v1360h270l443 -1155v1155h180v-1360h-270l-443 1157v-1157h-180zM303 1434q18 111 77.5 162t141.5 51q43 0 77 -14.5t62.5 -31t56 -31t60.5 -14.5q78 0 90 86h136q-20 -119 -83 -167t-139 -48q-43 0 -77.5 14.5t-64.5 31t-57.5 31t-58.5 14.5q-76 0 -86 -84h-135z " />
<glyph unicode="&#xd2;" d="M98 680q0 156 32 286t96.5 223t161.5 144t226 51t225.5 -51t161 -144t97 -223t32.5 -286t-32.5 -286t-97 -223t-161 -144.5t-225.5 -51.5t-226 51.5t-161.5 144.5t-96.5 223t-32 286zM285 680q0 -262 78.5 -399.5t250.5 -137.5t251 137.5t79 399.5t-79 399.5t-251 137.5 t-250.5 -137.5t-78.5 -399.5zM305 1645h246l209 -215h-172z" />
<glyph unicode="&#xd3;" d="M98 680q0 156 32 286t96.5 223t161.5 144t226 51t225.5 -51t161 -144t97 -223t32.5 -286t-32.5 -286t-97 -223t-161 -144.5t-225.5 -51.5t-226 51.5t-161.5 144.5t-96.5 223t-32 286zM285 680q0 -262 78.5 -399.5t250.5 -137.5t251 137.5t79 399.5t-79 399.5t-251 137.5 t-250.5 -137.5t-78.5 -399.5zM510 1430l209 215h246l-283 -215h-172z" />
<glyph unicode="&#xd4;" d="M98 680q0 156 32 286t96.5 223t161.5 144t226 51t225.5 -51t161 -144t97 -223t32.5 -286t-32.5 -286t-97 -223t-161 -144.5t-225.5 -51.5t-226 51.5t-161.5 144.5t-96.5 223t-32 286zM281 1430l256 215h159l250 -215h-203l-129 106l-131 -106h-202zM285 680 q0 -262 78.5 -399.5t250.5 -137.5t251 137.5t79 399.5t-79 399.5t-251 137.5t-250.5 -137.5t-78.5 -399.5z" />
<glyph unicode="&#xd5;" d="M98 680q0 156 32 286t96.5 223t161.5 144t226 51t225.5 -51t161 -144t97 -223t32.5 -286t-32.5 -286t-97 -223t-161 -144.5t-225.5 -51.5t-226 51.5t-161.5 144.5t-96.5 223t-32 286zM264 1434q18 111 77.5 162t141.5 51q43 0 77 -14.5t62.5 -31t56 -31t60.5 -14.5 q78 0 90 86h136q-20 -119 -83 -167t-139 -48q-43 0 -77.5 14.5t-64.5 31t-57.5 31t-58.5 14.5q-76 0 -86 -84h-135zM285 680q0 -262 78.5 -399.5t250.5 -137.5t251 137.5t79 399.5t-79 399.5t-251 137.5t-250.5 -137.5t-78.5 -399.5z" />
<glyph unicode="&#xd6;" d="M98 680q0 156 32 286t96.5 223t161.5 144t226 51t225.5 -51t161 -144t97 -223t32.5 -286t-32.5 -286t-97 -223t-161 -144.5t-225.5 -51.5t-226 51.5t-161.5 144.5t-96.5 223t-32 286zM285 680q0 -262 78.5 -399.5t250.5 -137.5t251 137.5t79 399.5t-79 399.5t-251 137.5 t-250.5 -137.5t-78.5 -399.5zM309 1444v188h174v-188h-174zM745 1444v188h175v-188h-175z" />
<glyph unicode="&#xd7;" d="M166 193l319 317l-319 321l123 123l319 -319l320 317l123 -123l-320 -319l330 -330l-123 -123l-330 330l-319 -317z" />
<glyph unicode="&#xd8;" d="M98 680q0 156 32 286t96.5 223t161.5 144t226 51q113 0 200 -38.5t151 -110.5l108 154l84 -58l-129 -184q102 -182 102 -467q0 -156 -32.5 -286t-97 -223t-161 -144.5t-225.5 -51.5q-102 0 -184 33t-143 92l-90 -127l-84 58l106 151q-59 92 -90 218t-31 280zM285 680 q0 -207 49 -336l526 743q-84 129 -246 130q-172 0 -250.5 -137.5t-78.5 -399.5zM389 246q80 -103 225 -103q172 0 251 137.5t79 399.5q0 178 -37 299z" />
<glyph unicode="&#xd9;" d="M152 561v799h180v-819q0 -102 11 -177t42 -124.5t85 -73t142 -23.5t144.5 27t87 80t42 131t11.5 180v799h180v-782q0 -152 -21.5 -264.5t-75.5 -188.5t-143 -113t-225 -37q-129 0 -217 31t-142 100.5t-77.5 181t-23.5 273.5zM307 1645h246l209 -215h-172z" />
<glyph unicode="&#xda;" d="M152 561v799h180v-819q0 -102 11 -177t42 -124.5t85 -73t142 -23.5t144.5 27t87 80t42 131t11.5 180v799h180v-782q0 -152 -21.5 -264.5t-75.5 -188.5t-143 -113t-225 -37q-129 0 -217 31t-142 100.5t-77.5 181t-23.5 273.5zM475 1430l209 215h246l-283 -215h-172z" />
<glyph unicode="&#xdb;" d="M152 561v799h180v-819q0 -102 11 -177t42 -124.5t85 -73t142 -23.5t144.5 27t87 80t42 131t11.5 180v799h180v-782q0 -152 -21.5 -264.5t-75.5 -188.5t-143 -113t-225 -37q-129 0 -217 31t-142 100.5t-77.5 181t-23.5 273.5zM281 1430l256 215h159l250 -215h-203 l-129 106l-131 -106h-202z" />
<glyph unicode="&#xdc;" d="M152 561v799h180v-819q0 -102 11 -177t42 -124.5t85 -73t142 -23.5t144.5 27t87 80t42 131t11.5 180v799h180v-782q0 -152 -21.5 -264.5t-75.5 -188.5t-143 -113t-225 -37q-129 0 -217 31t-142 100.5t-77.5 181t-23.5 273.5zM309 1444v188h174v-188h-174zM745 1444v188 h175v-188h-175z" />
<glyph unicode="&#xdd;" d="M49 1360h211l356 -655l355 655h211l-475 -842v-518h-183v518zM492 1430l208 215h246l-282 -215h-172z" />
<glyph unicode="&#xde;" d="M231 0v1360h181v-230h157q113 0 211.5 -18t170 -66.5t112.5 -131.5t41 -212t-41 -211.5t-112.5 -131t-170 -67t-211.5 -18.5h-157v-274h-181zM412 446h180q70 0 129 8.5t103 35t69 77.5t25 135t-25 135.5t-69 78t-103 34.5t-129 8h-180v-512z" />
<glyph unicode="&#xdf;" d="M160 0v922q0 463 446 462q180 0 287.5 -86t107.5 -237q0 -102 -50 -176t-156 -119q61 -16 113.5 -45t90 -74t60 -106.5t22.5 -141.5q0 -119 -37.5 -199.5t-102 -131t-150.5 -72t-183 -21.5q-49 0 -104 5.5t-103 15.5l37 166q39 -12 87 -18.5t91 -6.5q59 0 110.5 12.5 t89.5 41t59.5 78.5t21.5 128q0 76 -28.5 129.5t-80 86t-123 47t-157.5 14.5h-6v155h4q154 0 236.5 52.5t82.5 154.5q0 92 -55 144.5t-166 52.5q-147 0 -208.5 -77t-61.5 -245v-911h-174z" />
<glyph unicode="&#xe0;" d="M180 297q0 94 48 156.5t136.5 100.5t211 55.5t274.5 25.5v53q0 61 -19.5 102t-51 65t-74.5 34t-91 10q-113 0 -171 -49t-64 -133h-180q4 78 39.5 138t93 102t132.5 64.5t154 22.5q203 0 304.5 -90t101.5 -292v-662h-154l-6 158q-45 -78 -126 -130.5t-210 -52.5 q-84 0 -148.5 26t-108.5 71t-67.5 102t-23.5 123zM367 291q0 -80 53 -128t139 -48q51 0 104.5 17.5t97.5 55t71.5 99t27.5 147.5v78q-66 -10 -125 -17.5t-110 -17.5q-123 -23 -190.5 -63.5t-67.5 -122.5zM397 1360h221l173 -221h-146z" />
<glyph unicode="&#xe1;" d="M180 297q0 94 48 156.5t136.5 100.5t211 55.5t274.5 25.5v53q0 61 -19.5 102t-51 65t-74.5 34t-91 10q-113 0 -171 -49t-64 -133h-180q4 78 39.5 138t93 102t132.5 64.5t154 22.5q203 0 304.5 -90t101.5 -292v-662h-154l-6 158q-45 -78 -126 -130.5t-210 -52.5 q-84 0 -148.5 26t-108.5 71t-67.5 102t-23.5 123zM367 291q0 -80 53 -128t139 -48q51 0 104.5 17.5t97.5 55t71.5 99t27.5 147.5v78q-66 -10 -125 -17.5t-110 -17.5q-123 -23 -190.5 -63.5t-67.5 -122.5zM520 1139l172 221h221l-247 -221h-146z" />
<glyph unicode="&#xe2;" d="M180 297q0 94 48 156.5t136.5 100.5t211 55.5t274.5 25.5v53q0 61 -19.5 102t-51 65t-74.5 34t-91 10q-113 0 -171 -49t-64 -133h-180q4 78 39.5 138t93 102t132.5 64.5t154 22.5q203 0 304.5 -90t101.5 -292v-662h-154l-6 158q-45 -78 -126 -130.5t-210 -52.5 q-84 0 -148.5 26t-108.5 71t-67.5 102t-23.5 123zM281 1139l251 221h168l246 -221h-182l-150 102l-151 -102h-182zM367 291q0 -80 53 -128t139 -48q51 0 104.5 17.5t97.5 55t71.5 99t27.5 147.5v78q-66 -10 -125 -17.5t-110 -17.5q-123 -23 -190.5 -63.5t-67.5 -122.5z" />
<glyph unicode="&#xe3;" d="M180 297q0 94 48 156.5t136.5 100.5t211 55.5t274.5 25.5v53q0 61 -19.5 102t-51 65t-74.5 34t-91 10q-113 0 -171 -49t-64 -133h-180q4 78 39.5 138t93 102t132.5 64.5t154 22.5q203 0 304.5 -90t101.5 -292v-662h-154l-6 158q-45 -78 -126 -130.5t-210 -52.5 q-84 0 -148.5 26t-108.5 71t-67.5 102t-23.5 123zM264 1157q18 111 77.5 162t141.5 51q43 0 77 -14.5t62.5 -30.5t56 -30.5t60.5 -14.5q78 0 90 86h136q-20 -119 -83 -167t-139 -48q-43 0 -77.5 14.5t-64.5 30.5t-57.5 30.5t-58.5 14.5q-76 0 -86 -84h-135zM367 291 q0 -80 53 -128t139 -48q51 0 104.5 17.5t97.5 55t71.5 99t27.5 147.5v78q-66 -10 -125 -17.5t-110 -17.5q-123 -23 -190.5 -63.5t-67.5 -122.5z" />
<glyph unicode="&#xe4;" d="M180 297q0 94 48 156.5t136.5 100.5t211 55.5t274.5 25.5v53q0 61 -19.5 102t-51 65t-74.5 34t-91 10q-113 0 -171 -49t-64 -133h-180q4 78 39.5 138t93 102t132.5 64.5t154 22.5q203 0 304.5 -90t101.5 -292v-662h-154l-6 158q-45 -78 -126 -130.5t-210 -52.5 q-84 0 -148.5 26t-108.5 71t-67.5 102t-23.5 123zM309 1141v188h174v-188h-174zM367 291q0 -80 53 -128t139 -48q51 0 104.5 17.5t97.5 55t71.5 99t27.5 147.5v78q-66 -10 -125 -17.5t-110 -17.5q-123 -23 -190.5 -63.5t-67.5 -122.5zM745 1141v188h175v-188h-175z" />
<glyph unicode="&#xe5;" d="M180 297q0 94 48 156.5t136.5 100.5t211 55.5t274.5 25.5v53q0 61 -19.5 102t-51 65t-74.5 34t-91 10q-113 0 -171 -49t-64 -133h-180q4 78 39.5 138t93 102t132.5 64.5t154 22.5q203 0 304.5 -90t101.5 -292v-662h-154l-6 158q-45 -78 -126 -130.5t-210 -52.5 q-84 0 -148.5 26t-108.5 71t-67.5 102t-23.5 123zM367 291q0 -80 53 -128t139 -48q51 0 104.5 17.5t97.5 55t71.5 99t27.5 147.5v78q-66 -10 -125 -17.5t-110 -17.5q-123 -23 -190.5 -63.5t-67.5 -122.5zM463 1284q0 72 50 117t122 45t122 -45t50 -117t-50 -117t-122 -45 t-122 45t-50 117zM553 1284q0 -35 24.5 -57.5t57.5 -22.5t57.5 22.5t24.5 57.5t-24.5 58.5t-57.5 23.5t-57.5 -23.5t-24.5 -58.5z" />
<glyph unicode="&#xe6;" d="M31 272q0 98 39 161t94 99.5t116.5 54t104.5 23.5l102 17v65q0 123 -31.5 166t-101.5 43q-76 0 -105.5 -49t-33.5 -133h-162q4 78 31 137t69 100t97 62.5t117 21.5q180 0 239 -131q47 61 106.5 95t131.5 34q88 0 153.5 -42t108.5 -119.5t62.5 -186t15.5 -244.5l-520 5 q-2 -150 46 -244t130 -94q76 0 112.5 41t53.5 143h163q-20 -150 -105 -236t-220 -86q-102 0 -172 48.5t-111 134.5q-45 -96 -112.5 -139.5t-165.5 -43.5q-63 0 -110.5 26t-79.5 68t-47 95t-15 108zM197 285q0 -68 28 -119t94 -51q35 0 67 17.5t56.5 55t39 99t14.5 147.5v58 l-113 -17q-98 -14 -142 -63.5t-44 -126.5zM664 590h352q0 61 -9.5 117.5t-30 97.5t-53 65.5t-79.5 24.5q-86 0 -131 -81t-49 -224z" />
<glyph unicode="&#xe7;" d="M162 510q0 115 32.5 212t93 168t147.5 110.5t198 39.5q88 0 161.5 -29.5t127 -78.5t85 -113.5t37.5 -134.5h-178q-16 94 -80.5 153.5t-160.5 59.5q-57 0 -107.5 -24.5t-88.5 -72.5t-59.5 -120t-21.5 -168q0 -98 21.5 -172t59.5 -123t88 -73.5t108 -24.5q51 0 94 17.5 t74.5 46t52 67.5t28.5 80h181q-10 -74 -46 -137.5t-91.5 -110.5t-126 -74.5t-150.5 -32.5l-43 -67q31 6 57 6q70 0 108 -35t38 -94q0 -37 -18.5 -66.5t-48 -49t-66.5 -30t-74 -10.5q-39 0 -84 6.5t-92 28.5l31 78q53 -27 110 -27q41 0 78 12.5t37 47.5q0 29 -23.5 43 t-58.5 14q-16 0 -36.5 -3t-37.5 -13l-57 32l82 134q-90 12 -161 57t-120 113.5t-74.5 159.5t-25.5 198z" />
<glyph unicode="&#xe8;" d="M156 508q0 123 34.5 222t96 169t146.5 106.5t188 36.5q113 0 199.5 -39.5t145 -115.5t87 -183.5t24.5 -244.5l-737 6q0 -80 19.5 -143.5t56.5 -108.5t88 -69.5t112 -24.5q115 0 175.5 50t89.5 138h180q-16 -74 -53 -134t-93.5 -104t-130 -69t-163.5 -25q-117 0 -204 41 t-145.5 112t-87 168t-28.5 212zM342 604h549q0 61 -16.5 115.5t-51.5 94.5t-84.5 63.5t-117.5 23.5q-123 0 -198 -73.5t-81 -223.5zM362 1360h222l172 -221h-146z" />
<glyph unicode="&#xe9;" d="M156 508q0 123 34.5 222t96 169t146.5 106.5t188 36.5q113 0 199.5 -39.5t145 -115.5t87 -183.5t24.5 -244.5l-737 6q0 -80 19.5 -143.5t56.5 -108.5t88 -69.5t112 -24.5q115 0 175.5 50t89.5 138h180q-16 -74 -53 -134t-93.5 -104t-130 -69t-163.5 -25q-117 0 -204 41 t-145.5 112t-87 168t-28.5 212zM342 604h549q0 61 -16.5 115.5t-51.5 94.5t-84.5 63.5t-117.5 23.5q-123 0 -198 -73.5t-81 -223.5zM537 1139l172 221h221l-248 -221h-145z" />
<glyph unicode="&#xea;" d="M156 508q0 123 34.5 222t96 169t146.5 106.5t188 36.5q113 0 199.5 -39.5t145 -115.5t87 -183.5t24.5 -244.5l-737 6q0 -80 19.5 -143.5t56.5 -108.5t88 -69.5t112 -24.5q115 0 175.5 50t89.5 138h180q-16 -74 -53 -134t-93.5 -104t-130 -69t-163.5 -25q-117 0 -204 41 t-145.5 112t-87 168t-28.5 212zM281 1139l251 221h168l246 -221h-182l-150 102l-151 -102h-182zM342 604h549q0 61 -16.5 115.5t-51.5 94.5t-84.5 63.5t-117.5 23.5q-123 0 -198 -73.5t-81 -223.5z" />
<glyph unicode="&#xeb;" d="M156 508q0 123 34.5 222t96 169t146.5 106.5t188 36.5q113 0 199.5 -39.5t145 -115.5t87 -183.5t24.5 -244.5l-737 6q0 -80 19.5 -143.5t56.5 -108.5t88 -69.5t112 -24.5q115 0 175.5 50t89.5 138h180q-16 -74 -53 -134t-93.5 -104t-130 -69t-163.5 -25q-117 0 -204 41 t-145.5 112t-87 168t-28.5 212zM309 1141v188h174v-188h-174zM342 604h549q0 61 -16.5 115.5t-51.5 94.5t-84.5 63.5t-117.5 23.5q-123 0 -198 -73.5t-81 -223.5zM745 1141v188h175v-188h-175z" />
<glyph unicode="&#xec;" d="M256 0v143h291v738h-256v143h430v-881h291v-143h-756zM332 1360h221l172 -221h-145z" />
<glyph unicode="&#xed;" d="M256 0v143h291v738h-256v143h430v-881h291v-143h-756zM438 1139l172 221h221l-247 -221h-146z" />
<glyph unicode="&#xee;" d="M256 0v143h291v738h-256v143h430v-881h291v-143h-756zM281 1139l251 221h168l246 -221h-182l-150 102l-151 -102h-182z" />
<glyph unicode="&#xef;" d="M256 0v143h291v738h-256v143h430v-881h291v-143h-756zM309 1141v188h174v-188h-174zM745 1141v188h175v-188h-175z" />
<glyph unicode="&#xf0;" d="M139 500q0 121 33 217t91.5 163.5t138 103.5t176.5 36q96 0 169.5 -40t122.5 -108l2 2q-41 96 -106.5 165t-147.5 122l-147 -90l-86 47l150 94q-68 39 -152 74l125 113q45 -23 89 -45.5t85 -50.5l131 81l88 -49l-141 -86q70 -53 128 -119.5t101 -147.5t66.5 -177 t23.5 -213q0 -158 -34.5 -273.5t-98 -191.5t-152 -114t-194.5 -38q-217 0 -339 138.5t-122 386.5zM324 500q0 -176 69.5 -274.5t208.5 -98.5q61 0 114.5 21.5t91.5 67.5t60.5 115.5t22.5 168.5q0 98 -22.5 167.5t-61.5 114.5t-92 66.5t-113 21.5q-137 0 -207.5 -98 t-70.5 -272z" />
<glyph unicode="&#xf1;" d="M219 0v1024h174v-145q39 66 108.5 113.5t192.5 47.5q92 0 153.5 -28.5t98.5 -80.5t52.5 -124t15.5 -156v-651h-174v590q0 61 -5.5 116.5t-24.5 96.5t-60 64.5t-113 23.5q-119 0 -181.5 -85t-62.5 -251v-555h-174zM287 1157q18 111 77.5 162t141.5 51q43 0 76.5 -14.5 t62.5 -30.5t56.5 -30.5t60.5 -14.5q78 0 90 86h135q-20 -119 -82.5 -167t-138.5 -48q-43 0 -78 14.5t-64.5 30.5t-57 30.5t-58.5 14.5q-76 0 -86 -84h-135z" />
<glyph unicode="&#xf2;" d="M141 506q0 139 41 239.5t107.5 166t151.5 97t173 31.5t173 -31.5t152 -97t107.5 -166t40.5 -239.5t-40.5 -239.5t-107.5 -165t-152 -95.5t-173 -31t-173 31t-151.5 95.5t-107.5 165t-41 239.5zM326 506q0 -102 23.5 -176t62.5 -121t91 -69.5t111 -22.5q57 0 110.5 22.5 t92.5 69.5t62.5 120.5t23.5 176.5q0 102 -23.5 176t-62.5 122t-92 71.5t-111 23.5q-59 0 -111 -23.5t-91 -71.5t-62.5 -122t-23.5 -176zM356 1360h222l172 -221h-146z" />
<glyph unicode="&#xf3;" d="M141 506q0 139 41 239.5t107.5 166t151.5 97t173 31.5t173 -31.5t152 -97t107.5 -166t40.5 -239.5t-40.5 -239.5t-107.5 -165t-152 -95.5t-173 -31t-173 31t-151.5 95.5t-107.5 165t-41 239.5zM326 506q0 -102 23.5 -176t62.5 -121t91 -69.5t111 -22.5q57 0 110.5 22.5 t92.5 69.5t62.5 120.5t23.5 176.5q0 102 -23.5 176t-62.5 122t-92 71.5t-111 23.5q-59 0 -111 -23.5t-91 -71.5t-62.5 -122t-23.5 -176zM500 1139l172 221h221l-248 -221h-145z" />
<glyph unicode="&#xf4;" d="M141 506q0 139 41 239.5t107.5 166t151.5 97t173 31.5t173 -31.5t152 -97t107.5 -166t40.5 -239.5t-40.5 -239.5t-107.5 -165t-152 -95.5t-173 -31t-173 31t-151.5 95.5t-107.5 165t-41 239.5zM281 1139l251 221h168l246 -221h-182l-150 102l-151 -102h-182zM326 506 q0 -102 23.5 -176t62.5 -121t91 -69.5t111 -22.5q57 0 110.5 22.5t92.5 69.5t62.5 120.5t23.5 176.5q0 102 -23.5 176t-62.5 122t-92 71.5t-111 23.5q-59 0 -111 -23.5t-91 -71.5t-62.5 -122t-23.5 -176z" />
<glyph unicode="&#xf5;" d="M141 506q0 139 41 239.5t107.5 166t151.5 97t173 31.5t173 -31.5t152 -97t107.5 -166t40.5 -239.5t-40.5 -239.5t-107.5 -165t-152 -95.5t-173 -31t-173 31t-151.5 95.5t-107.5 165t-41 239.5zM264 1157q18 111 77.5 162t141.5 51q43 0 77 -14.5t62.5 -30.5t56 -30.5 t60.5 -14.5q78 0 90 86h136q-20 -119 -83 -167t-139 -48q-43 0 -77.5 14.5t-64.5 30.5t-57.5 30.5t-58.5 14.5q-76 0 -86 -84h-135zM326 506q0 -102 23.5 -176t62.5 -121t91 -69.5t111 -22.5q57 0 110.5 22.5t92.5 69.5t62.5 120.5t23.5 176.5q0 102 -23.5 176t-62.5 122 t-92 71.5t-111 23.5q-59 0 -111 -23.5t-91 -71.5t-62.5 -122t-23.5 -176z" />
<glyph unicode="&#xf6;" d="M141 506q0 139 41 239.5t107.5 166t151.5 97t173 31.5t173 -31.5t152 -97t107.5 -166t40.5 -239.5t-40.5 -239.5t-107.5 -165t-152 -95.5t-173 -31t-173 31t-151.5 95.5t-107.5 165t-41 239.5zM309 1141v188h174v-188h-174zM326 506q0 -102 23.5 -176t62.5 -121t91 -69.5 t111 -22.5q57 0 110.5 22.5t92.5 69.5t62.5 120.5t23.5 176.5q0 102 -23.5 176t-62.5 122t-92 71.5t-111 23.5q-59 0 -111 -23.5t-91 -71.5t-62.5 -122t-23.5 -176zM745 1141v188h175v-188h-175z" />
<glyph unicode="&#xf7;" d="M117 410v163h993v-163h-993zM508 61v220h219v-220h-219zM508 723v219h219v-219h-219z" />
<glyph unicode="&#xf8;" d="M141 506q0 139 41 239.5t107.5 166t151.5 97t173 31.5q84 0 164 -27.5t146 -84.5l82 94l77 -66l-92 -106q45 -63 70.5 -148.5t25.5 -195.5q0 -139 -40.5 -239.5t-107.5 -165t-152 -95.5t-173 -31q-78 0 -154.5 25t-142.5 78l-88 -103l-75 68l94 107q-49 66 -78 152.5 t-29 203.5zM326 506q0 -68 10 -122t29 -97l452 518q-41 47 -92 70.5t-111 23.5q-59 0 -111 -23.5t-91 -71.5t-62.5 -122t-23.5 -176zM422 197q39 -41 89 -60.5t103 -19.5q57 0 110.5 22.5t92.5 69.5t62.5 120.5t23.5 176.5q0 61 -8 112.5t-25 92.5z" />
<glyph unicode="&#xf9;" d="M219 365v659h174v-598q0 -61 4 -116.5t24.5 -96.5t60.5 -64.5t112 -23.5q119 0 181.5 85t62.5 251v563h174v-1024h-174v131q-41 -66 -110 -111t-191 -45q-92 0 -153.5 29t-98.5 81t-51.5 124t-14.5 156zM336 1360h221l172 -221h-145z" />
<glyph unicode="&#xfa;" d="M219 365v659h174v-598q0 -61 4 -116.5t24.5 -96.5t60.5 -64.5t112 -23.5q119 0 181.5 85t62.5 251v563h174v-1024h-174v131q-41 -66 -110 -111t-191 -45q-92 0 -153.5 29t-98.5 81t-51.5 124t-14.5 156zM520 1139l172 221h221l-247 -221h-146z" />
<glyph unicode="&#xfb;" d="M219 365v659h174v-598q0 -61 4 -116.5t24.5 -96.5t60.5 -64.5t112 -23.5q119 0 181.5 85t62.5 251v563h174v-1024h-174v131q-41 -66 -110 -111t-191 -45q-92 0 -153.5 29t-98.5 81t-51.5 124t-14.5 156zM281 1139l251 221h168l246 -221h-182l-150 102l-151 -102h-182z " />
<glyph unicode="&#xfc;" d="M219 365v659h174v-598q0 -61 4 -116.5t24.5 -96.5t60.5 -64.5t112 -23.5q119 0 181.5 85t62.5 251v563h174v-1024h-174v131q-41 -66 -110 -111t-191 -45q-92 0 -153.5 29t-98.5 81t-51.5 124t-14.5 156zM309 1141v188h174v-188h-174zM745 1141v188h175v-188h-175z" />
<glyph unicode="&#xfd;" d="M145 -182h187q39 0 66.5 4t49 20.5t39 48t37.5 86.5l8 23l-382 1024h192l279 -791l272 791h180l-379 -1067q-27 -76 -53.5 -131t-64 -90t-92 -52.5t-136.5 -17.5h-203v152zM520 1139l172 221h221l-247 -221h-146z" />
<glyph unicode="&#xfe;" d="M190 -334v1694h175v-490q43 74 114.5 122t188.5 48q88 0 163.5 -35.5t131 -103t87 -167t31.5 -226.5t-31.5 -226.5t-87 -167t-131 -103.5t-163.5 -36q-117 0 -188.5 48.5t-114.5 121.5v-479h-175zM356 508q0 -102 22.5 -175t60.5 -120t87 -69.5t105 -22.5 q133 0 198.5 101.5t65.5 285.5t-65.5 285.5t-198.5 101.5q-55 0 -104.5 -22.5t-87.5 -69.5t-60.5 -121t-22.5 -174z" />
<glyph unicode="&#xff;" d="M145 -182h187q39 0 66.5 4t49 20.5t39 48t37.5 86.5l8 23l-382 1024h192l279 -791l272 791h180l-379 -1067q-27 -76 -53.5 -131t-64 -90t-92 -52.5t-136.5 -17.5h-203v152zM309 1141v188h174v-188h-174zM745 1141v188h175v-188h-175z" />
<glyph unicode="&#x152;" d="M74 680q0 164 18.5 294t59.5 221t108.5 140t165.5 49q92 0 154 -61v37h575v-172h-395v-402h356v-172h-356v-442h395v-172h-575v37q-61 -61 -154 -62q-98 0 -165.5 49.5t-108.5 140.5t-59.5 221t-18.5 294zM260 680q0 -262 36 -399.5t130 -137.5t130 137.5t36 399.5 t-36 399.5t-130 137.5t-130 -137.5t-36 -399.5z" />
<glyph unicode="&#x153;" d="M39 504q0 111 17.5 208t56.5 169.5t102.5 115.5t155.5 43q90 0 148.5 -38.5t92.5 -104.5q41 68 101.5 104.5t138.5 36.5q88 0 152.5 -42t105.5 -119.5t59.5 -186t14.5 -244.5h-504q-2 -147 42 -239t126 -92q76 0 111.5 45t46.5 137h163q-14 -150 -98 -236t-219 -86 q-88 0 -147.5 35t-96.5 99q-35 -63 -93 -98.5t-144 -35.5q-92 0 -155.5 41t-102.5 113t-56.5 168t-17.5 207zM207 504q0 -184 37 -286.5t127 -102.5t122.5 99t32.5 284q0 92 -7 165.5t-25.5 127t-48 82t-74.5 28.5q-90 0 -127 -107.5t-37 -289.5zM680 590h336 q0 61 -7.5 118.5t-26.5 100.5t-51 68.5t-79 25.5q-86 0 -127 -85t-45 -228z" />
<glyph unicode="&#x178;" d="M49 1360h211l356 -655l355 655h211l-475 -842v-518h-183v518zM309 1444v188h174v-188h-174zM745 1444v188h175v-188h-175z" />
<glyph unicode="&#x2c6;" d="M281 1139l251 221h168l246 -221h-182l-150 102l-151 -102h-182z" />
<glyph unicode="&#x2dc;" d="M264 1157q18 111 77.5 162t141.5 51q43 0 77 -14.5t62.5 -30.5t56 -30.5t60.5 -14.5q78 0 90 86h136q-20 -119 -83 -167t-139 -48q-43 0 -77.5 14.5t-64.5 30.5t-57.5 30.5t-58.5 14.5q-76 0 -86 -84h-135z" />
<glyph unicode="&#x2000;" horiz-adv-x="867" />
<glyph unicode="&#x2001;" horiz-adv-x="1735" />
<glyph unicode="&#x2002;" horiz-adv-x="867" />
<glyph unicode="&#x2003;" horiz-adv-x="1735" />
<glyph unicode="&#x2004;" horiz-adv-x="578" />
<glyph unicode="&#x2005;" horiz-adv-x="433" />
<glyph unicode="&#x2006;" horiz-adv-x="289" />
<glyph unicode="&#x2007;" horiz-adv-x="289" />
<glyph unicode="&#x2008;" horiz-adv-x="216" />
<glyph unicode="&#x2009;" horiz-adv-x="347" />
<glyph unicode="&#x200a;" horiz-adv-x="96" />
<glyph unicode="&#x2010;" d="M311 440v164h607v-164h-607z" />
<glyph unicode="&#x2011;" d="M311 440v164h607v-164h-607z" />
<glyph unicode="&#x2012;" d="M311 440v164h607v-164h-607z" />
<glyph unicode="&#x2013;" d="M199 440v164h831v-164h-831z" />
<glyph unicode="&#x2014;" d="M90 440v164h1049v-164h-1049z" />
<glyph unicode="&#x2018;" d="M500 877v233l116 250h111l-100 -264h92v-219h-219z" />
<glyph unicode="&#x2019;" d="M500 877l100 264h-92v219h219v-234l-117 -249h-110z" />
<glyph unicode="&#x201a;" d="M500 -264l100 264h-92v219h219v-233l-117 -250h-110z" />
<glyph unicode="&#x201c;" d="M340 877v233l117 250h110l-100 -264h92v-219h-219zM659 877v233l117 250h111l-101 -264h93v-219h-220z" />
<glyph unicode="&#x201d;" d="M340 877l100 264h-92v219h219v-234l-116 -249h-111zM659 877l101 264h-92v219h219v-234l-117 -249h-111z" />
<glyph unicode="&#x201e;" d="M332 -264l100 264h-92v219h219v-233l-117 -250h-110zM670 -264l100 264h-92v219h219v-233l-117 -250h-110z" />
<glyph unicode="&#x2022;" d="M270 530q0 70 27 131.5t73 107.5t106.5 72.5t129.5 26.5q74 0 138.5 -26.5t111.5 -72.5t73.5 -107.5t26.5 -131.5q0 -74 -26.5 -137t-73.5 -110t-111.5 -74t-138.5 -27q-70 0 -130 27t-106 74t-73 110t-27 137z" />
<glyph unicode="&#x2026;" d="M76 0v219h219v-219h-219zM506 0v219h219v-219h-219zM936 0v219h219v-219h-219z" />
<glyph unicode="&#x202f;" horiz-adv-x="347" />
<glyph unicode="&#x2039;" d="M348 520l303 434h187l-287 -434l287 -436h-187z" />
<glyph unicode="&#x203a;" d="M389 84l287 436l-287 434h186l304 -434l-304 -436h-186z" />
<glyph unicode="&#x205f;" horiz-adv-x="433" />
<glyph unicode="&#x20ac;" d="M14 492l82 120h88q-2 16 -2 34v36v46.5t2 45.5h-170l82 121h101q35 227 152.5 358t320.5 131q180 0 296.5 -121.5t151.5 -332.5h-184q-8 59 -26.5 111.5t-51.5 91t-80 61.5t-112 23q-227 0 -281 -322h481l-82 -121h-411q-2 -23 -2 -45v-47v-35.5t2 -34.5h340l-82 -120 h-248q23 -168 91.5 -258.5t195.5 -90.5q66 0 113.5 21.5t79.5 59.5t51.5 90.5t29.5 113.5h180q-35 -223 -156.5 -338t-308.5 -115q-106 0 -187 37t-137.5 104.5t-91 163t-48.5 212.5h-179z" />
<glyph unicode="&#x2122;" d="M8 1270v90h547v-90h-217v-617h-115v617h-215zM600 653v707h166l108 -363l111 363h168v-707h-115v615l-114 -369h-95l-116 369v-615h-113z" />
<glyph unicode="&#x25fc;" horiz-adv-x="1024" d="M0 0v1024h1024v-1024h-1024z" />
<glyph unicode="&#xfb01;" d="M59 881v143h191v53q0 80 11 134.5t42 87t83 47t136 14.5h238v-146h-234q-33 0 -52 -6t-30.5 -20t-15.5 -41t-4 -66v-57h639v-1024h-174v881h-465v-881h-174v881h-191zM889 1151v209h174v-209h-174z" />
<glyph unicode="&#xfb02;" d="M59 881v143h191v53q0 80 11 134.5t42 87t83 47t136 14.5h541v-1360h-174v1214h-363q-33 0 -52 -6t-30.5 -20t-15.5 -41t-4 -66v-57h289v-143h-289v-881h-174v881h-191z" />
</font>
</defs>
</svg>
